<svg width="325" height="184" viewBox="0 0 325 184" fill="none" xmlns="http://www.w3.org/2000/svg">
<g clip-path="url(#clip0_148_1477)">
<line x1="1" y1="-3.64262e-08" x2="1" y2="180" stroke="#3A396F"/>
<line x1="14" y1="-3.64262e-08" x2="14" y2="180" stroke="#3A396F"/>
<line x1="27" y1="-3.64262e-08" x2="27" y2="180" stroke="#3A396F"/>
<line x1="40" y1="-3.64262e-08" x2="40" y2="180" stroke="#3A396F"/>
<line x1="53" y1="-3.64262e-08" x2="53" y2="180" stroke="#3A396F"/>
<line x1="66" y1="-3.64262e-08" x2="66" y2="180" stroke="#3A396F"/>
<line x1="79" y1="-3.64262e-08" x2="79" y2="180" stroke="#3A396F"/>
<line x1="92" y1="-3.64262e-08" x2="92" y2="180" stroke="#3A396F"/>
<line x1="105" y1="-3.64262e-08" x2="105" y2="180" stroke="#3A396F"/>
<line x1="118" y1="-3.64262e-08" x2="118" y2="180" stroke="#3A396F"/>
<line x1="131" y1="-3.64262e-08" x2="131" y2="180" stroke="#3A396F"/>
<line x1="144" y1="-3.64262e-08" x2="144" y2="180" stroke="#3A396F"/>
<line x1="157" y1="-3.64262e-08" x2="157" y2="180" stroke="#3A396F"/>
<line x1="170" y1="-3.64262e-08" x2="170" y2="180" stroke="#3A396F"/>
<line x1="183" y1="-3.64262e-08" x2="183" y2="180" stroke="#3A396F"/>
<line x1="196" y1="-3.64262e-08" x2="196" y2="180" stroke="#3A396F"/>
<line x1="209" y1="-3.64262e-08" x2="209" y2="180" stroke="#3A396F"/>
<line x1="222" y1="-3.64262e-08" x2="222" y2="180" stroke="#3A396F"/>
<line x1="235" y1="-3.64262e-08" x2="235" y2="180" stroke="#3A396F"/>
<line x1="248" y1="-3.64262e-08" x2="248" y2="180" stroke="#3A396F"/>
<line x1="261" y1="-3.64262e-08" x2="261" y2="180" stroke="#3A396F"/>
<line x1="274" y1="-3.64262e-08" x2="274" y2="180" stroke="#3A396F"/>
<line x1="287" y1="-3.64262e-08" x2="287" y2="180" stroke="#3A396F"/>
<line x1="300" y1="-3.64262e-08" x2="300" y2="180" stroke="#3A396F"/>
<line x1="313" y1="-3.64262e-08" x2="313" y2="180" stroke="#3A396F"/>
<line x1="324" y1="1" y2="1" stroke="#3A396F"/>
<line x1="324" y1="14" y2="14" stroke="#3A396F"/>
<line x1="324" y1="27" y2="27" stroke="#3A396F"/>
<line x1="324" y1="40" y2="40" stroke="#3A396F"/>
<line x1="324" y1="53" y2="53" stroke="#3A396F"/>
<line x1="324" y1="66" y2="66" stroke="#3A396F"/>
<line x1="324" y1="79" y2="79" stroke="#3A396F"/>
<line x1="324" y1="92" y2="92" stroke="#3A396F"/>
<line x1="324" y1="105" y2="105" stroke="#3A396F"/>
<line x1="324" y1="118" y2="118" stroke="#3A396F"/>
<line x1="324" y1="131" y2="131" stroke="#3A396F"/>
<line x1="324" y1="144" y2="144" stroke="#3A396F"/>
<line x1="324" y1="157" y2="157" stroke="#3A396F"/>
<line x1="324" y1="170" y2="170" stroke="#3A396F"/>
<line x1="325" y1="183" x2="9.15527e-05" y2="183" stroke="#3A396F"/>
<path d="M260 157H65L162.5 24L260 157Z" stroke="#FAF8F5"/>
</g>
<defs>
<clipPath id="clip0_148_1477">
<rect width="325" height="184" fill="white"/>
</clipPath>
</defs>
</svg>
