<svg width="325" height="181" viewBox="0 0 325 181" fill="none" xmlns="http://www.w3.org/2000/svg">
<g clip-path="url(#clip0_148_1530)">
<line x1="0.5" y1="-3.64262e-08" x2="0.500005" y2="180" stroke="#3A396F"/>
<line x1="12.5" y1="-3.64262e-08" x2="12.5" y2="180" stroke="#3A396F"/>
<line x1="24.5" y1="-3.64262e-08" x2="24.5" y2="180" stroke="#3A396F"/>
<line x1="36.5" y1="-3.64262e-08" x2="36.5" y2="180" stroke="#3A396F"/>
<line x1="48.5" y1="-3.64262e-08" x2="48.5" y2="180" stroke="#3A396F"/>
<line x1="60.5" y1="-3.64262e-08" x2="60.5" y2="180" stroke="#3A396F"/>
<line x1="72.5" y1="-3.64262e-08" x2="72.5" y2="180" stroke="#3A396F"/>
<line x1="84.5" y1="-3.64262e-08" x2="84.5" y2="180" stroke="#3A396F"/>
<line x1="96.5" y1="-3.64262e-08" x2="96.5" y2="180" stroke="#3A396F"/>
<line x1="108.5" y1="-3.64262e-08" x2="108.5" y2="180" stroke="#3A396F"/>
<line x1="120.5" y1="-3.64262e-08" x2="120.5" y2="180" stroke="#3A396F"/>
<line x1="132.5" y1="-3.64262e-08" x2="132.5" y2="180" stroke="#3A396F"/>
<line x1="144.5" y1="-3.64262e-08" x2="144.5" y2="180" stroke="#3A396F"/>
<line x1="156.5" y1="-3.64262e-08" x2="156.5" y2="180" stroke="#3A396F"/>
<line x1="168.5" y1="-3.64262e-08" x2="168.5" y2="180" stroke="#3A396F"/>
<line x1="180.5" y1="-3.64262e-08" x2="180.5" y2="180" stroke="#3A396F"/>
<line x1="192.5" y1="-3.64262e-08" x2="192.5" y2="180" stroke="#3A396F"/>
<line x1="204.5" y1="-3.64262e-08" x2="204.5" y2="180" stroke="#3A396F"/>
<line x1="216.5" y1="-3.64262e-08" x2="216.5" y2="180" stroke="#3A396F"/>
<line x1="228.5" y1="-3.64262e-08" x2="228.5" y2="180" stroke="#3A396F"/>
<line x1="240.5" y1="-3.64262e-08" x2="240.5" y2="180" stroke="#3A396F"/>
<line x1="252.5" y1="-3.64262e-08" x2="252.5" y2="180" stroke="#3A396F"/>
<line x1="264.5" y1="-3.64262e-08" x2="264.5" y2="180" stroke="#3A396F"/>
<line x1="276.5" y1="-3.64262e-08" x2="276.5" y2="180" stroke="#3A396F"/>
<line x1="288.5" y1="-3.64262e-08" x2="288.5" y2="180" stroke="#3A396F"/>
<line x1="300.5" y1="-3.64262e-08" x2="300.5" y2="180" stroke="#3A396F"/>
<line x1="312.5" y1="-3.64262e-08" x2="312.5" y2="180" stroke="#3A396F"/>
<line x1="324.5" y1="-3.64262e-08" x2="324.5" y2="180" stroke="#3A396F"/>
<line x1="324" y1="0.5" y2="0.5" stroke="#3A396F"/>
<line x1="324" y1="12.5" y2="12.5" stroke="#3A396F"/>
<line x1="324" y1="24.5" y2="24.5" stroke="#3A396F"/>
<line x1="324" y1="36.5" y2="36.5" stroke="#3A396F"/>
<line x1="324" y1="48.5" y2="48.5" stroke="#3A396F"/>
<line x1="324" y1="60.5" y2="60.5" stroke="#3A396F"/>
<line x1="324" y1="72.5" y2="72.5" stroke="#3A396F"/>
<line x1="324" y1="84.5" y2="84.5" stroke="#3A396F"/>
<line x1="324" y1="96.5" y2="96.5" stroke="#3A396F"/>
<line x1="324" y1="108.5" y2="108.5" stroke="#3A396F"/>
<line x1="324" y1="120.5" y2="120.5" stroke="#3A396F"/>
<line x1="324" y1="132.5" y2="132.5" stroke="#3A396F"/>
<line x1="324" y1="144.5" y2="144.5" stroke="#3A396F"/>
<line x1="324" y1="156.5" y2="156.5" stroke="#3A396F"/>
<line x1="324" y1="168.5" y2="168.5" stroke="#3A396F"/>
<line x1="324" y1="180.5" y2="180.5" stroke="#3A396F"/>
<rect x="61" y="24" width="203" height="109" stroke="#FAF8F5"/>
<rect x="61" y="-98" width="203" height="110" stroke="#FAF8F5"/>
<rect x="61" y="144" width="203" height="177" stroke="#FAF8F5"/>
</g>
<defs>
<clipPath id="clip0_148_1530">
<rect width="325" height="181" fill="white"/>
</clipPath>
</defs>
</svg>
