<svg width="84" height="84" viewBox="0 0 84 84" fill="none" xmlns="http://www.w3.org/2000/svg">
<path d="M84 42C84 65.196 65.196 84 42 84C18.804 84 0 65.196 0 42C0 18.804 18.804 0 42 0C65.196 0 84 18.804 84 42Z" fill="#EEECE8"/>
<path d="M25.2045 27.8107V30.6571H24.1648V24.0153H25.2045V26.8618H26.3859V24.0153H27.4445V30.6571H26.3859V27.8107H25.2045Z" fill="#B4B0AA"/>
<path d="M30.7881 24.0153L31.8467 30.6571H30.7975L30.618 29.4521H29.342L29.1624 30.6571H28.2078L29.2664 24.0153H30.7881ZM29.9753 25.1919L29.4743 28.5507H30.4762L29.9753 25.1919Z" fill="#B4B0AA"/>
<path d="M36.6502 31.5491H35.62V30.6571H33.3989V31.5491H32.3875V29.7273H32.794C32.9452 29.5375 33.0302 29.2497 33.0491 28.8639L33.2854 24.0153H36.1965V29.7273H36.6502V31.5491ZM34.2589 24.9642L34.0699 28.8449C34.0447 29.2687 33.947 29.5628 33.7769 29.7273H35.1379V24.9642H34.2589Z" fill="#B4B0AA"/>
<path d="M38.5526 24.9642V26.8144H39.9798V27.7632H38.5526V29.7083H40.3484V30.6571H37.5129V24.0153H40.3484V24.9642H38.5526Z" fill="#B4B0AA"/>
<path d="M44.2724 24.0153V26.7005L45.5011 24.0153H46.5407L45.2648 26.71L46.5407 30.6571H45.4727L44.5276 27.7158L44.2724 28.2187V30.6571H43.2421V28.2187L42.9869 27.7063L42.0418 30.6571H40.9738L42.2592 26.7385L40.9738 24.0153H42.0134L43.2421 26.7005V24.0153H44.2724Z" fill="#B4B0AA"/>
<path d="M48.3036 27.8107V30.6571H47.2639V24.0153H48.3036V26.8618H49.485V24.0153H50.5436V30.6571H49.485V27.8107H48.3036Z" fill="#B4B0AA"/>
<path d="M53.1122 30.6571H51.581V24.0153H52.6207V26.5108H53.1122C54.1455 26.5108 54.6622 27.0579 54.6622 28.1522V29.0157C54.6622 30.11 54.1455 30.6571 53.1122 30.6571ZM52.6207 29.7083H53.1122C53.2823 29.7083 53.4083 29.6609 53.4902 29.566C53.5784 29.4711 53.6225 29.3098 53.6225 29.0821V28.0858C53.6225 27.8581 53.5784 27.6968 53.4902 27.6019C53.4083 27.507 53.2823 27.4596 53.1122 27.4596H52.6207V29.7083ZM56.2973 30.6571H55.2577V24.0153H56.2973V30.6571Z" fill="#B4B0AA"/>
<path d="M58.406 30.6571L59.2755 27.6114L59.7009 25.9794V30.6571H60.6366V24.0153H59.4929L58.6423 26.7575L58.2642 28.2187V24.0153H57.338V30.6571H58.406ZM59.474 22.5352H60.1073C60.1073 22.8641 60.0128 23.1234 59.8237 23.3132C59.6347 23.4966 59.3606 23.5884 59.0014 23.5884C58.6486 23.5884 58.3808 23.4966 58.1981 23.3132C58.0216 23.1298 57.9271 22.8704 57.9145 22.5352H58.5572C58.5698 22.7059 58.6108 22.823 58.6801 22.8862C58.7494 22.9432 58.8565 22.9716 59.0014 22.9716C59.1527 22.9716 59.2661 22.94 59.3417 22.8767C59.4173 22.8135 59.4614 22.6996 59.474 22.5352Z" fill="#B4B0AA"/>
<path d="M23.5729 37.2847V36.9147C23.5729 36.63 23.5256 36.4339 23.4311 36.3264C23.3429 36.2126 23.2106 36.1556 23.0342 36.1556C22.6687 36.1556 22.486 36.3739 22.486 36.8103V37.3512H21.5314V36.8578C21.5314 36.3201 21.6605 35.9121 21.9189 35.6338C22.1772 35.3491 22.5584 35.2068 23.0625 35.2068C23.5666 35.2068 23.951 35.3523 24.2156 35.6433C24.4802 35.9279 24.6126 36.3391 24.6126 36.8767V37.0475C24.6126 37.756 24.37 38.2114 23.8848 38.4138C24.37 38.6289 24.6126 39.0938 24.6126 39.8086V40.3305C24.6126 40.8682 24.4802 41.2825 24.2156 41.5735C23.951 41.8581 23.5666 42.0004 23.0625 42.0004C22.5584 42.0004 22.1741 41.8581 21.9094 41.5735C21.6448 41.2825 21.5125 40.8682 21.5125 40.3305V39.5999H22.4954V40.3969C22.4954 40.8334 22.675 41.0516 23.0342 41.0516C23.2106 41.0516 23.3429 40.9978 23.4311 40.8903C23.5256 40.7764 23.5729 40.5803 23.5729 40.302V39.7802C23.5729 39.4765 23.5193 39.2615 23.4122 39.135C23.3051 39.0021 23.1318 38.9357 22.8924 38.9357H22.6372V37.9869H22.9491C23.157 37.9869 23.3114 37.9331 23.4122 37.8256C23.5193 37.718 23.5729 37.5378 23.5729 37.2847Z" fill="#B4B0AA"/>
<path d="M27.9063 35.2827L28.9649 41.9245H27.9157L27.7362 40.7195H26.4602L26.2806 41.9245H25.326L26.3846 35.2827H27.9063ZM27.0935 36.4593L26.5925 39.8181H27.5944L27.0935 36.4593Z" fill="#B4B0AA"/>
<path d="M31.7647 39.4481H32.7476V40.3305C32.7476 40.8682 32.6153 41.2825 32.3507 41.5735C32.086 41.8581 31.7017 42.0004 31.1976 42.0004C30.6935 42.0004 30.3091 41.8581 30.0445 41.5735C29.7798 41.2825 29.6475 40.8682 29.6475 40.3305V36.8767C29.6475 36.3391 29.7798 35.9279 30.0445 35.6433C30.3091 35.3523 30.6935 35.2068 31.1976 35.2068C31.7017 35.2068 32.086 35.3523 32.3507 35.6433C32.6153 35.9279 32.7476 36.3391 32.7476 36.8767V37.5219H31.7647V36.8103C31.7647 36.3739 31.5851 36.1556 31.2259 36.1556C30.8668 36.1556 30.6872 36.3739 30.6872 36.8103V40.3969C30.6872 40.827 30.8668 41.0421 31.2259 41.0421C31.5851 41.0421 31.7647 40.827 31.7647 40.3969V39.4481Z" fill="#B4B0AA"/>
<path d="M33.3595 36.2315V35.2827H36.5731V36.2315H35.4861V41.9245H34.4465V36.2315H33.3595Z" fill="#B4B0AA"/>
<path d="M38.8457 35.2827C39.879 35.2827 40.3957 35.8299 40.3957 36.9242V37.7876C40.3957 38.8819 39.879 39.4291 38.8457 39.4291H38.3542V41.9245H37.3145V35.2827H38.8457ZM38.8457 36.2315H38.3542V38.4803H38.8457C39.0158 38.4803 39.1418 38.4328 39.2237 38.3379C39.3119 38.2431 39.356 38.0817 39.356 37.854V36.8578C39.356 36.63 39.3119 36.4687 39.2237 36.3739C39.1418 36.279 39.0158 36.2315 38.8457 36.2315Z" fill="#B4B0AA"/>
<path d="M42.1155 36.8103V40.3969C42.1155 40.8334 42.295 41.0516 42.6542 41.0516C43.0133 41.0516 43.1929 40.8334 43.1929 40.3969V36.8103C43.1929 36.3739 43.0133 36.1556 42.6542 36.1556C42.295 36.1556 42.1155 36.3739 42.1155 36.8103ZM41.0758 40.3305V36.8767C41.0758 36.3454 41.2113 35.9342 41.4822 35.6433C41.7531 35.3523 42.1438 35.2068 42.6542 35.2068C43.1646 35.2068 43.5552 35.3523 43.8262 35.6433C44.0971 35.9342 44.2326 36.3454 44.2326 36.8767V40.3305C44.2326 40.8618 44.0971 41.273 43.8262 41.564C43.5552 41.8549 43.1646 42.0004 42.6542 42.0004C42.1438 42.0004 41.7531 41.8549 41.4822 41.564C41.2113 41.273 41.0758 40.8618 41.0758 40.3305Z" fill="#B4B0AA"/>
<path d="M46.2598 41.9245L47.1294 38.8788L47.5547 37.2468V41.9245H48.4904V35.2827H47.3467L46.4961 38.0248L46.118 39.486V35.2827H45.1918V41.9245H46.2598ZM47.3278 33.8025H47.9611C47.9611 34.1315 47.8666 34.3908 47.6775 34.5806C47.4885 34.764 47.2144 34.8557 46.8553 34.8557C46.5024 34.8557 46.2346 34.764 46.0519 34.5806C45.8755 34.3971 45.7809 34.1378 45.7683 33.8025H46.411C46.4236 33.9733 46.4646 34.0903 46.5339 34.1536C46.6032 34.2105 46.7103 34.239 46.8553 34.239C47.0065 34.239 47.1199 34.2074 47.1955 34.1441C47.2711 34.0808 47.3152 33.967 47.3278 33.8025Z" fill="#B4B0AA"/>
<path d="M54.4421 35.2827V40.9947H54.9053V42.8164H53.8939V41.9245H49.5273V35.2827H50.567V40.9757H51.4649V35.2827H52.5046V40.9757H53.4025V35.2827H54.4421Z" fill="#B4B0AA"/>
<path d="M57.6926 38.8788L56.823 41.9245H55.755V35.2827H56.6813V39.486L57.0593 38.0248L57.91 35.2827H59.0536V41.9245H58.1179V37.2468L57.6926 38.8788Z" fill="#B4B0AA"/>
<path d="M62.4444 41.9245L61.4331 39.2773L61.1118 39.8845V41.9245H60.0721V35.2827H61.1118V38.1766L62.4728 35.2827H63.5125L62.0664 38.2431L63.5125 41.9245H62.4444Z" fill="#B4B0AA"/>
<path d="M32.2652 46.5501C33.2986 46.5501 33.8152 47.0972 33.8152 48.1915V49.055C33.8152 50.1493 33.2986 50.6965 32.2652 50.6965H31.7737V53.1919H30.734V46.5501H32.2652ZM32.2652 47.4989H31.7737V49.7476H32.2652C32.4353 49.7476 32.5613 49.7002 32.6432 49.6053C32.7315 49.5104 32.7756 49.3491 32.7756 49.1214V48.1251C32.7756 47.8974 32.7315 47.7361 32.6432 47.6412C32.5613 47.5463 32.4353 47.4989 32.2652 47.4989Z" fill="#B4B0AA"/>
<path d="M35.535 48.0777V51.6643C35.535 52.1007 35.7146 52.319 36.0737 52.319C36.4329 52.319 36.6125 52.1007 36.6125 51.6643V48.0777C36.6125 47.6412 36.4329 47.423 36.0737 47.423C35.7146 47.423 35.535 47.6412 35.535 48.0777ZM34.4953 51.5978V48.1441C34.4953 47.6128 34.6308 47.2016 34.9017 46.9106C35.1727 46.6196 35.5633 46.4742 36.0737 46.4742C36.5841 46.4742 36.9748 46.6196 37.2457 46.9106C37.5167 47.2016 37.6521 47.6128 37.6521 48.1441V51.5978C37.6521 52.1292 37.5167 52.5403 37.2457 52.8313C36.9748 53.1223 36.5841 53.2678 36.0737 53.2678C35.5633 53.2678 35.1727 53.1223 34.9017 52.8313C34.6308 52.5403 34.4953 52.1292 34.4953 51.5978Z" fill="#B4B0AA"/>
<path d="M40.6434 50.7154H41.6264V51.5978C41.6264 52.1355 41.494 52.5498 41.2294 52.8408C40.9648 53.1255 40.5804 53.2678 40.0763 53.2678C39.5722 53.2678 39.1879 53.1255 38.9232 52.8408C38.6586 52.5498 38.5263 52.1355 38.5263 51.5978V48.1441C38.5263 47.6064 38.6586 47.1953 38.9232 46.9106C39.1879 46.6196 39.5722 46.4742 40.0763 46.4742C40.5804 46.4742 40.9648 46.6196 41.2294 46.9106C41.494 47.1953 41.6264 47.6064 41.6264 48.1441V48.7893H40.6434V48.0777C40.6434 47.6412 40.4638 47.423 40.1047 47.423C39.7455 47.423 39.5659 47.6412 39.5659 48.0777V51.6643C39.5659 52.0944 39.7455 52.3095 40.1047 52.3095C40.4638 52.3095 40.6434 52.0944 40.6434 51.6643V50.7154Z" fill="#B4B0AA"/>
<path d="M44.5728 50.7154H45.5558V51.5978C45.5558 52.1355 45.4235 52.5498 45.1588 52.8408C44.8942 53.1255 44.5098 53.2678 44.0057 53.2678C43.5016 53.2678 43.1173 53.1255 42.8526 52.8408C42.588 52.5498 42.4557 52.1355 42.4557 51.5978V48.1441C42.4557 47.6064 42.588 47.1953 42.8526 46.9106C43.1173 46.6196 43.5016 46.4742 44.0057 46.4742C44.5098 46.4742 44.8942 46.6196 45.1588 46.9106C45.4235 47.1953 45.5558 47.6064 45.5558 48.1441V48.7893H44.5728V48.0777C44.5728 47.6412 44.3932 47.423 44.0341 47.423C43.6749 47.423 43.4953 47.6412 43.4953 48.0777V51.6643C43.4953 52.0944 43.6749 52.3095 44.0341 52.3095C44.3932 52.3095 44.5728 52.0944 44.5728 51.6643V50.7154Z" fill="#B4B0AA"/>
<path d="M48.4077 50.1461L47.5382 53.1919H46.4701V46.5501H47.3964V50.7534L47.7745 49.2922L48.6251 46.5501H49.7687V53.1919H48.833V48.5141L48.4077 50.1461Z" fill="#B4B0AA"/>
<path d="M52.7248 50.1461L51.8552 53.1919H50.7872V46.5501H51.7135V50.7534L52.0915 49.2922L52.9422 46.5501H54.0858V53.1919H53.1501V48.5141L52.7248 50.1461Z" fill="#B4B0AA"/>
<path d="M36.9177 59.4494C36.9177 59.1648 36.8705 58.9687 36.7759 58.8611C36.6877 58.7473 36.5554 58.6904 36.379 58.6904C36.0198 58.6904 35.8402 58.9086 35.8402 59.3451V60.0567H34.8573V59.4115C34.8573 58.8738 34.9896 58.4626 35.2542 58.178C35.5189 57.887 35.9033 57.7415 36.4073 57.7415C36.9114 57.7415 37.2958 57.887 37.5604 58.178C37.8251 58.4626 37.9574 58.8738 37.9574 59.4115C37.9574 59.7973 37.8849 60.1642 37.74 60.5121C37.6014 60.86 37.4281 61.1573 37.2202 61.404C37.0185 61.6507 36.8169 61.8816 36.6153 62.0967C36.4136 62.3117 36.2404 62.53 36.0954 62.7514C35.9568 62.9664 35.8875 63.172 35.8875 63.3681C35.8875 63.4314 35.8906 63.4788 35.8969 63.5104H37.8629V64.4592H34.8573V63.6433C34.8573 63.2827 34.9266 62.9538 35.0652 62.6565C35.2101 62.3528 35.3834 62.0903 35.585 61.8689C35.7867 61.6412 35.9883 61.4198 36.1899 61.2048C36.3916 60.9834 36.5617 60.724 36.7003 60.4267C36.8453 60.1294 36.9177 59.8036 36.9177 59.4494Z" fill="#B4B0AA"/>
<path d="M39.8428 59.3451V62.9316C39.8428 63.3681 40.0224 63.5863 40.3816 63.5863C40.7407 63.5863 40.9203 63.3681 40.9203 62.9316V59.3451C40.9203 58.9086 40.7407 58.6904 40.3816 58.6904C40.0224 58.6904 39.8428 58.9086 39.8428 59.3451ZM38.8032 62.8652V59.4115C38.8032 58.8801 38.9386 58.469 39.2096 58.178C39.4805 57.887 39.8712 57.7415 40.3816 57.7415C40.892 57.7415 41.2826 57.887 41.5536 58.178C41.8245 58.469 41.96 58.8801 41.96 59.4115V62.8652C41.96 63.3966 41.8245 63.8077 41.5536 64.0987C41.2826 64.3897 40.892 64.5352 40.3816 64.5352C39.8712 64.5352 39.4805 64.3897 39.2096 64.0987C38.9386 63.8077 38.8032 63.3966 38.8032 62.8652Z" fill="#B4B0AA"/>
<path d="M44.9796 59.4494C44.9796 59.1648 44.9323 58.9687 44.8378 58.8611C44.7496 58.7473 44.6173 58.6904 44.4409 58.6904C44.0817 58.6904 43.9021 58.9086 43.9021 59.3451V60.0567H42.9192V59.4115C42.9192 58.8738 43.0515 58.4626 43.3161 58.178C43.5808 57.887 43.9651 57.7415 44.4692 57.7415C44.9733 57.7415 45.3577 57.887 45.6223 58.178C45.887 58.4626 46.0193 58.8738 46.0193 59.4115C46.0193 59.7973 45.9468 60.1642 45.8019 60.5121C45.6633 60.86 45.49 61.1573 45.2821 61.404C45.0804 61.6507 44.8788 61.8816 44.6772 62.0967C44.4755 62.3117 44.3022 62.53 44.1573 62.7514C44.0187 62.9664 43.9494 63.172 43.9494 63.3681C43.9494 63.4314 43.9525 63.4788 43.9588 63.5104H45.9248V64.4592H42.9192V63.6433C42.9192 63.2827 42.9885 62.9538 43.1271 62.6565C43.272 62.3528 43.4453 62.0903 43.6469 61.8689C43.8486 61.6412 44.0502 61.4198 44.2518 61.2048C44.4535 60.9834 44.6236 60.724 44.7622 60.4267C44.9071 60.1294 44.9796 59.8036 44.9796 59.4494Z" fill="#B4B0AA"/>
<path d="M47.5928 59.3925V58.6524C47.952 58.6524 48.2072 58.5828 48.3584 58.4437C48.5096 58.3045 48.6356 58.0958 48.7365 57.8174H49.4359V64.4592H48.3962V59.3925H47.5928Z" fill="#B4B0AA"/>
<path opacity="0.3" d="M6.52609 49.4827L6.11523 49.5726L6.1619 49.7858C6.28637 50.3544 6.04869 50.7044 5.44886 50.8357L4.4555 51.0531C3.85568 51.1844 3.49353 50.9658 3.36907 50.3971L3.32239 50.1839L2.88552 50.2795L2.76258 49.7178L3.19944 49.6222L3.15277 49.409C3.0283 48.8404 3.26598 48.4904 3.86581 48.3591L4.85916 48.1417C5.45899 48.0104 5.82114 48.229 5.9456 48.7977L5.99228 49.0109L6.40314 48.921L6.52609 49.4827ZM3.65725 49.2986L3.70392 49.5118L5.493 49.1202L5.44633 48.907C5.40458 48.7163 5.26236 48.6475 5.01966 48.7006L3.95349 48.934C3.71425 48.9863 3.61551 49.1079 3.65725 49.2986ZM5.61595 49.6819L3.82687 50.0735L3.87354 50.2867C3.91529 50.4774 4.05578 50.5466 4.29501 50.4942L5.36118 50.2608C5.60388 50.2077 5.70436 50.0858 5.66262 49.8951L5.61595 49.6819Z" fill="#B4B0AA"/>
<path opacity="0.3" d="M2.81609 47.0594L3.84432 46.9161L3.73334 46.1198L4.26064 46.0464L4.37161 46.8426L5.45257 46.6919L5.31294 45.69L5.84024 45.6166L6.06071 47.1984L2.36963 47.7129L2.14915 46.131L2.67645 46.0575L2.81609 47.0594Z" fill="#B4B0AA"/>
<path opacity="0.3" d="M6.09516 42.6196L6.13325 43.1986L5.63388 43.2315L5.716 44.4799L6.21537 44.4471L6.25276 45.0155L5.23277 45.0826L5.21774 44.8542C5.1059 44.7762 4.94161 44.7389 4.72487 44.7425L2.00147 44.7883L1.89384 43.152L5.09194 42.9417L5.07517 42.6867L6.09516 42.6196ZM2.49672 44.2062L4.67651 44.1695C4.91473 44.168 5.08303 44.2121 5.1814 44.3017L5.13108 43.5367L2.46422 43.7121L2.49672 44.2062Z" fill="#B4B0AA"/>
<path opacity="0.3" d="M2.38832 41.4531L3.42646 41.4599L3.43179 40.6561L3.96418 40.6596L3.95885 41.4635L5.05023 41.4707L5.05694 40.4592L5.58932 40.4627L5.57873 42.0599L1.85205 42.0352L1.86264 40.438L2.39502 40.4415L2.38832 41.4531Z" fill="#B4B0AA"/>
<path opacity="0.3" d="M1.95022 38.6534C1.99143 38.0727 2.31828 37.8042 2.93077 37.8476L3.41403 37.8819C4.02652 37.9254 4.31216 38.2375 4.27095 38.8181L4.25135 39.0942L5.64803 39.1934L5.60657 39.7775L1.88916 39.5137L1.95022 38.6534ZM2.48128 38.6911L2.46168 38.9672L3.72029 39.0565L3.73989 38.7804C3.74667 38.6848 3.72515 38.6121 3.67531 38.5623C3.62572 38.509 3.5372 38.4778 3.40975 38.4687L2.85213 38.4292C2.72468 38.4201 2.63264 38.4385 2.57602 38.4843C2.51964 38.5265 2.48807 38.5955 2.48128 38.6911Z" fill="#B4B0AA"/>
<path opacity="0.3" d="M2.26024 35.7296L6.03331 35.6389L5.954 36.2245L5.2704 36.234L5.17395 36.9462L5.8304 37.1372L5.75823 37.6701L2.14521 36.579L2.26024 35.7296ZM2.85299 36.2719L4.68275 36.8045L4.75849 36.2453L2.85299 36.2719Z" fill="#B4B0AA"/>
<path opacity="0.3" d="M6.05214 35.4581L5.53093 35.3496C5.55987 35.2106 5.5582 35.1142 5.52591 35.0603C5.49087 35.0023 5.39205 34.9545 5.22946 34.917L2.49178 34.249L2.82934 32.628L6.47783 33.3878L6.35626 33.9716L3.22899 33.3203L3.12479 33.8207L5.3165 34.3424C5.6479 34.4223 5.87145 34.5413 5.98714 34.6996C6.10283 34.8578 6.13065 35.0811 6.07059 35.3695L6.05214 35.4581Z" fill="#B4B0AA"/>
<path opacity="0.3" d="M6.91606 31.6954L6.68147 32.5254L3.09521 31.5117L3.2545 30.9482L4.60191 31.329L4.67721 31.0626C4.83554 30.5025 5.21014 30.3059 5.80102 30.4729L6.26723 30.6047C6.85811 30.7717 7.07439 31.1353 6.91606 31.6954ZM6.32844 31.817L6.40374 31.5506C6.4298 31.4584 6.4235 31.3828 6.38481 31.324C6.3471 31.2617 6.26676 31.2131 6.1438 31.1784L5.60586 31.0263C5.48291 30.9916 5.38905 30.9909 5.32431 31.0242C5.26052 31.0541 5.2156 31.1152 5.18954 31.2074L5.11423 31.4738L6.32844 31.817Z" fill="#B4B0AA"/>
<path opacity="0.3" d="M6.01057 29.2205L7.51157 29.7664L7.31141 30.3167L3.80908 29.043L4.00925 28.4926L5.51024 29.0385L5.7377 28.4131L4.2367 27.8672L4.44051 27.3068L7.94283 28.5806L7.73903 29.141L6.23803 28.5951L6.01057 29.2205Z" fill="#B4B0AA"/>
<path opacity="0.3" d="M8.65028 26.8657L8.28576 27.6473L4.9082 26.0723L5.15571 25.5415L6.42471 26.1333L6.54172 25.8824C6.78773 25.3548 7.18898 25.2208 7.74547 25.4803L8.18455 25.6851C8.74105 25.9446 8.89629 26.3381 8.65028 26.8657ZM8.05076 26.8916L8.16777 26.6407C8.20827 26.5538 8.21415 26.4782 8.1854 26.4139C8.15815 26.3464 8.08662 26.2856 7.97082 26.2316L7.46419 25.9953C7.34838 25.9413 7.25586 25.9256 7.1866 25.9481C7.11885 25.9675 7.06473 26.0205 7.02422 26.1074L6.90722 26.3583L8.05076 26.8916ZM9.40856 25.2396L9.16105 25.7704L5.78349 24.1953L6.031 23.6645L9.40856 25.2396Z" fill="#B4B0AA"/>
<path opacity="0.3" d="M10.0591 24.0311L8.82394 22.7524L8.15069 22.0871L10.4238 23.3994L10.6873 22.943L7.45982 21.0796L7.13772 21.6375L8.23062 22.8217L8.83419 23.4161L6.79166 22.2369L6.53079 22.6887L9.75826 24.5521L10.0591 24.0311ZM6.41313 21.2314L6.59148 20.9225C6.75132 21.0148 6.85072 21.1337 6.8897 21.2791C6.9256 21.4228 6.89297 21.5822 6.79181 21.7574C6.69243 21.9296 6.57244 22.0345 6.43184 22.0721C6.29301 22.1067 6.14036 22.0801 5.9739 21.9922L6.15492 21.6787C6.24146 21.7204 6.30986 21.7333 6.36012 21.7172C6.4073 21.6994 6.4513 21.6551 6.49212 21.5844C6.53471 21.5106 6.55129 21.4464 6.54185 21.3918C6.5324 21.3372 6.4895 21.2837 6.41313 21.2314Z" fill="#B4B0AA"/>
<path opacity="0.3" d="M11.2141 19.2642L12.4882 20.2273L12.1351 20.6945L9.16211 18.4473L9.51525 17.9801L10.7894 18.9432L11.1907 18.4123L9.91655 17.4492L10.2761 16.9735L13.2491 19.2208L12.8895 19.6965L11.6154 18.7333L11.2141 19.2642Z" fill="#B4B0AA"/>
<path opacity="0.3" d="M11.8699 15.8778L12.6502 16.5626L13.1805 15.9584L13.5806 16.3096L13.0504 16.9138L13.8706 17.6338L14.5379 16.8735L14.938 17.2247L13.8845 18.4251L11.0835 15.9668L12.1371 14.7664L12.5372 15.1176L11.8699 15.8778Z" fill="#B4B0AA"/>
<path opacity="0.3" d="M16.3341 15.7786L14.8792 15.1349L14.9931 15.5035L15.8046 16.3108L15.3916 16.726L12.7495 14.0977L13.1625 13.6825L14.3137 14.8277L13.7032 13.1389L14.1162 12.7238L14.7194 14.4727L16.7583 15.3521L16.3341 15.7786Z" fill="#B4B0AA"/>
<path opacity="0.3" d="M15.5048 12.6247L16.8396 14.1308C17.0021 14.3141 17.159 14.3386 17.3104 14.2044C17.4618 14.0702 17.4563 13.9115 17.2938 13.7282L15.959 12.2222C15.7966 12.0389 15.6396 12.0144 15.4882 12.1485C15.3368 12.2827 15.3423 12.4415 15.5048 12.6247ZM16.3766 14.4913L15.0912 13.0411C14.8935 12.818 14.7976 12.5947 14.8035 12.3713C14.8094 12.1479 14.9199 11.9408 15.1351 11.7501C15.3502 11.5594 15.5691 11.4746 15.7916 11.4955C16.0141 11.5165 16.2242 11.6385 16.422 11.8616L17.7074 13.3119C17.9051 13.535 18.001 13.7583 17.9951 13.9817C17.9892 14.2051 17.8787 14.4122 17.6635 14.6028C17.4484 14.7935 17.2295 14.8784 17.007 14.8575C16.7845 14.8365 16.5744 14.7145 16.3766 14.4913Z" fill="#B4B0AA"/>
<path opacity="0.3" d="M17.102 10.1599L19.0341 12.0184L17.7665 9.66171L18.4183 9.17313L20.6536 12.1551L20.2106 12.4872L18.6075 10.3487L19.8868 12.7299L19.4438 13.062L17.5138 11.2152L19.0945 13.3238L18.6855 13.6304L16.4502 10.6484L17.102 10.1599Z" fill="#B4B0AA"/>
<path opacity="0.3" d="M20.1743 7.99474L21.9233 10.0266L20.8827 7.56122L21.5775 7.13603L23.5228 10.3148L23.0505 10.6038L21.6554 8.32418L22.7054 10.815L22.2331 11.104L20.4851 9.08407L21.8607 11.3319L21.4248 11.5987L19.4795 8.41992L20.1743 7.99474Z" fill="#B4B0AA"/>
<path opacity="0.3" d="M23.4579 6.72945L23.9275 7.65535L24.6445 7.29172L24.8853 7.76654L24.1683 8.13017L24.662 9.10355L25.5642 8.646L25.805 9.12082L24.3805 9.84326L22.6948 6.51953L24.1193 5.79709L24.3601 6.27191L23.4579 6.72945Z" fill="#B4B0AA"/>
<path opacity="0.3" d="M25.7407 5.0611C26.2758 4.83212 26.6642 4.99988 26.9057 5.5644L27.0963 6.00982C27.3379 6.57434 27.1911 6.97109 26.6559 7.20008L26.4014 7.30899L26.9522 8.59629L26.4138 8.82667L24.9478 5.40039L25.7407 5.0611ZM25.9501 5.55057L25.6956 5.65948L26.192 6.81952L26.4465 6.71061C26.5346 6.67291 26.5894 6.62051 26.6109 6.55342C26.6356 6.48492 26.6228 6.39194 26.5726 6.27447L26.3527 5.76052C26.3024 5.64305 26.244 5.56961 26.1773 5.54022C26.114 5.50942 26.0382 5.51287 25.9501 5.55057Z" fill="#B4B0AA"/>
<path opacity="0.3" d="M28.3975 4.03306L28.9506 3.84047L30.1761 7.35995L29.6231 7.55254L29.1294 6.13469C29.0542 6.30744 28.9194 6.42766 28.725 6.49535C28.5038 6.57239 28.3078 6.55985 28.1369 6.45774C27.9682 6.35111 27.8407 6.17378 27.7543 5.92574L27.2361 4.4375L27.7891 4.24491L28.2916 5.6879C28.3313 5.80186 28.3918 5.8785 28.4732 5.91783C28.5533 5.9538 28.6404 5.95545 28.7342 5.92276C28.8247 5.89125 28.8846 5.83657 28.9139 5.75873C28.942 5.67753 28.9356 5.57828 28.8947 5.46096L28.3975 4.03306Z" fill="#B4B0AA"/>
<path opacity="0.3" d="M31.0859 3.75407L31.3507 4.75789L32.128 4.55282L32.2638 5.0676L31.4865 5.27267L31.7649 6.32797L32.743 6.06994L32.8788 6.58472L31.3344 6.99214L30.3838 3.38867L31.9281 2.98125L32.0639 3.49603L31.0859 3.75407Z" fill="#B4B0AA"/>
<path opacity="0.3" d="M34.3885 4.83797L34.9316 4.73002L35.0281 5.21565C35.0869 5.51155 35.0592 5.7541 34.9448 5.9433C34.8297 6.12901 34.6329 6.24955 34.3544 6.30491C34.0759 6.36026 33.848 6.32415 33.6707 6.19655C33.4926 6.06548 33.3742 5.85199 33.3154 5.55609L32.9376 3.65536C32.8787 3.35946 32.9069 3.11865 33.0219 2.93294C33.1363 2.74374 33.3328 2.62146 33.6113 2.56611C33.8898 2.51075 34.118 2.54861 34.2961 2.67968C34.4734 2.80727 34.5915 3.01902 34.6503 3.31492L34.7209 3.67L34.1778 3.77795L34.1 3.38631C34.0522 3.14611 33.9291 3.04573 33.7307 3.08517C33.5323 3.12461 33.4569 3.26443 33.5047 3.50464L33.897 5.47847C33.9441 5.71519 34.0668 5.81383 34.2653 5.77439C34.4637 5.73495 34.5394 5.59687 34.4923 5.36015L34.3885 4.83797Z" fill="#B4B0AA"/>
<path opacity="0.3" d="M37.0945 5.81639L36.3306 4.42092L36.197 4.78287L36.3506 5.91715L35.7703 5.99577L35.27 2.30273L35.8504 2.22412L36.0683 3.83323L36.6101 2.12121L37.1904 2.0426L36.6062 3.79798L37.6907 5.73563L37.0945 5.81639Z" fill="#B4B0AA"/>
<path opacity="0.3" d="M38.9941 3.92691L38.6109 5.66291L38.0104 5.7001L37.78 1.98047L38.3008 1.94821L38.4466 4.30221L38.6085 3.47072L38.9916 1.90542L39.6345 1.86559L39.8649 5.58522L39.3389 5.61781L39.1766 2.99813L38.9941 3.92691Z" fill="#B4B0AA"/>
<path opacity="0.3" d="M41.447 5.55176L41.9675 3.85187L42.2235 2.94061L42.1762 5.56489L42.7032 5.57437L42.7703 1.84822L42.1262 1.83662L41.6194 3.36637L41.3918 4.18229L41.4342 1.82417L40.9125 1.81478L40.8455 5.54093L41.447 5.55176ZM42.1305 1.00603L42.4872 1.01245C42.4838 1.19698 42.428 1.34152 42.3196 1.44607C42.2113 1.54707 42.056 1.59574 41.8537 1.5921C41.655 1.58852 41.5051 1.53435 41.404 1.42959C41.3065 1.32489 41.2559 1.17843 41.2522 0.99022L41.6142 0.996736C41.6195 1.09268 41.6414 1.15875 41.6798 1.19494C41.7183 1.22758 41.7783 1.24463 41.8599 1.2461C41.9451 1.24763 42.0093 1.23104 42.0525 1.19632C42.0958 1.1616 42.1217 1.09817 42.1305 1.00603Z" fill="#B4B0AA"/>
<path opacity="0.3" d="M46.4244 2.6841L45.9603 5.84457L45.3809 5.75948L45.9224 2.07227L47.7502 2.34069L47.2087 6.0279L46.6187 5.94126L47.0829 2.78079L46.4244 2.6841Z" fill="#B4B0AA"/>
<path opacity="0.3" d="M49.8328 2.74575C50.4013 2.87074 50.6197 3.23309 50.4878 3.8328L50.3838 4.30597C50.2519 4.90568 49.9018 5.14303 49.3332 5.01804L49.0629 4.95859L48.7622 6.32613L48.1902 6.20037L48.9905 2.56055L49.8328 2.74575ZM49.7185 3.26573L49.4481 3.20628L49.1772 4.43862L49.4476 4.49807C49.5412 4.51864 49.6162 4.50789 49.6727 4.4658C49.7327 4.42447 49.7764 4.34141 49.8038 4.21662L49.9238 3.67064C49.9513 3.54585 49.9465 3.45212 49.9094 3.38945C49.8757 3.32755 49.8121 3.2863 49.7185 3.26573Z" fill="#B4B0AA"/>
<path opacity="0.3" d="M51.7322 4.0997L51.1706 6.0322C51.1022 6.26737 51.1652 6.41318 51.3595 6.46964C51.5537 6.5261 51.685 6.43674 51.7534 6.20157L52.315 4.26907C52.3833 4.0339 52.3204 3.88808 52.1261 3.83163C51.9318 3.77517 51.8005 3.86453 51.7322 4.0997ZM50.6186 5.83298L51.1594 3.97205C51.2426 3.68576 51.3803 3.48551 51.5724 3.37132C51.7645 3.25713 51.9986 3.24015 52.2747 3.32038C52.5507 3.40061 52.7393 3.54041 52.8403 3.73979C52.9413 3.93916 52.9502 4.18199 52.867 4.46829L52.3262 6.32921C52.243 6.61551 52.1053 6.81575 51.9132 6.92994C51.7211 7.04413 51.487 7.06111 51.2109 6.98089C50.9348 6.90066 50.7463 6.76085 50.6453 6.56148C50.5443 6.36211 50.5354 6.11928 50.6186 5.83298Z" fill="#B4B0AA"/>
<path opacity="0.3" d="M54.2206 4.54094L53.8693 5.51788L54.6258 5.78988L54.4457 6.29088L53.6892 6.01887L53.3199 7.04591L54.2718 7.38817L54.0916 7.88916L52.5887 7.34876L53.8496 3.8418L55.3526 4.3822L55.1725 4.8832L54.2206 4.54094Z" fill="#B4B0AA"/>
<path opacity="0.3" d="M55.94 8.65439L56.0052 7.06485L55.704 7.30603L55.2507 8.35708L54.7129 8.12513L56.189 4.70312L56.7267 4.93507L56.0836 6.42609L57.4307 5.23871L57.9684 5.47065L56.5626 6.67328L56.4924 8.89266L55.94 8.65439Z" fill="#B4B0AA"/>
<path opacity="0.3" d="M58.1116 6.12245L58.354 5.64844L59.9656 6.47262L59.7232 6.94663L59.1781 6.66786L57.7237 9.5119L57.2023 9.24526L58.6567 6.40121L58.1116 6.12245Z" fill="#B4B0AA"/>
<path opacity="0.3" d="M61.6459 9.93005L60.7586 11.2581L60.2717 10.9327L62.342 7.83398L62.829 8.15933L61.9417 9.48737L62.495 9.85708L63.3823 8.52904L63.8781 8.8603L61.8078 11.9591L61.312 11.6278L62.1993 10.2998L61.6459 9.93005Z" fill="#B4B0AA"/>
<path opacity="0.3" d="M65.9595 10.4069L64.1395 13.7133L63.6733 13.3501L64.0091 12.7545L63.4421 12.3128L62.9468 12.784L62.5226 12.4535L65.2834 9.88013L65.9595 10.4069ZM65.1926 10.6463L63.8118 11.9596L64.2569 12.3065L65.1926 10.6463Z" fill="#B4B0AA"/>
<path opacity="0.3" d="M65.7627 15.8124L65.3308 15.4248L65.6651 15.0523L64.7339 14.2167L64.3996 14.5892L63.9756 14.2088L64.6583 13.4479L64.8287 13.6008C64.9632 13.5785 65.1067 13.4903 65.2593 13.3363L67.1753 11.4003L68.3957 12.4954L66.2552 14.8809L66.4454 15.0515L65.7627 15.8124ZM67.2278 12.1628L65.6943 13.7123C65.5249 13.8798 65.3738 13.9659 65.2408 13.9706L65.8114 14.4826L67.5964 12.4934L67.2278 12.1628Z" fill="#B4B0AA"/>
<path opacity="0.3" d="M69.2429 14.0744L68.4947 14.794L69.0519 15.3734L68.6682 15.7425L68.1109 15.163L67.3243 15.9196L68.0255 16.6487L67.6417 17.0177L66.5346 15.8665L69.2207 13.2832L70.3278 14.4344L69.9441 14.8034L69.2429 14.0744Z" fill="#B4B0AA"/>
<path opacity="0.3" d="M72.0295 16.3924L70.8656 17.3491L72.469 16.927L72.8409 17.3794L71.2165 17.7844L69.9621 19.746L69.58 19.2813L70.5169 17.8219L70.2076 17.8901L69.1507 18.759L68.7821 18.3107L69.8391 17.4418L69.9699 17.1482L68.3528 17.7884L67.9707 17.3236L70.1291 16.4867L70.8496 14.957L71.2215 15.4094L70.4971 16.9009L71.661 15.9441L72.0295 16.3924Z" fill="#B4B0AA"/>
<path opacity="0.3" d="M71.8464 19.6554L70.53 20.5599L70.1984 20.0772L73.27 17.9668L73.6017 18.4495L72.2852 19.3539L72.6621 19.9024L73.9785 18.998L74.3162 19.4895L71.2445 21.5998L70.9069 21.1084L72.2233 20.2039L71.8464 19.6554Z" fill="#B4B0AA"/>
<path opacity="0.3" d="M72.2533 23.2123L71.8313 22.4601L75.0815 20.6367L75.3681 21.1475L74.1469 21.8325L74.2824 22.074C74.5672 22.5816 74.4418 22.9857 73.9063 23.2861L73.4838 23.5231C72.9482 23.8236 72.5381 23.72 72.2533 23.2123ZM72.5822 22.7104L72.7176 22.9518C72.7645 23.0354 72.8225 23.0843 72.8915 23.0985C72.9622 23.1158 73.0533 23.0931 73.1647 23.0306L73.6523 22.7571C73.7637 22.6946 73.8305 22.6287 73.8526 22.5593C73.8765 22.493 73.8649 22.4181 73.8181 22.3345L73.6826 22.093L72.5822 22.7104ZM73.1311 24.7771L72.8446 24.2663L76.0948 22.4429L76.3814 22.9537L73.1311 24.7771Z" fill="#B4B0AA"/>
<path opacity="0.3" d="M76.6268 24.6725L75.6836 25.1064L76.0196 25.8367L75.5359 26.0592L75.2 25.3289L74.2084 25.785L74.6312 26.704L74.1475 26.9264L73.48 25.4754L76.8657 23.918L77.5332 25.369L77.0495 25.5915L76.6268 24.6725Z" fill="#B4B0AA"/>
<path opacity="0.3" d="M76.7472 29.2032L75.2271 29.6934L75.0474 29.136L78.5942 27.9922L78.774 28.5496L77.2539 29.0398L77.4582 29.6731L78.9782 29.1829L79.1613 29.7504L75.6144 30.8943L75.4314 30.3268L76.9515 29.8366L76.7472 29.2032Z" fill="#B4B0AA"/>
<path opacity="0.3" d="M78.8482 31.811L76.8928 32.2867C76.6548 32.3446 76.5597 32.4718 76.6075 32.6684C76.6554 32.865 76.7983 32.9343 77.0362 32.8765L78.9916 32.4007C79.2296 32.3429 79.3247 32.2156 79.2768 32.019C79.229 31.8225 79.0861 31.7531 78.8482 31.811ZM76.7905 31.7089L78.6735 31.2508C78.9632 31.1803 79.2054 31.1999 79.4001 31.3096C79.5949 31.4193 79.7262 31.6139 79.7942 31.8932C79.8621 32.1725 79.8348 32.4057 79.7122 32.5925C79.5897 32.7794 79.3836 32.9081 79.0939 32.9786L77.2109 33.4367C76.9212 33.5072 76.679 33.4875 76.4842 33.3778C76.2895 33.2681 76.1582 33.0736 76.0902 32.7943C76.0223 32.5149 76.0496 32.2818 76.1721 32.0949C76.2947 31.908 76.5008 31.7794 76.7905 31.7089Z" fill="#B4B0AA"/>
<path opacity="0.3" d="M80.2737 34.3504C80.3268 34.6474 80.2957 34.8765 80.1803 35.0378C80.0684 35.1984 79.8692 35.3043 79.5827 35.3556L79.4517 35.379C79.0744 35.4465 78.8059 35.3665 78.6462 35.1391C78.5856 35.4455 78.3492 35.6356 77.9369 35.7094L77.6382 35.7628C77.3552 35.8134 77.1251 35.777 76.948 35.6536C76.7751 35.5331 76.663 35.3296 76.6117 35.0431L76.4496 34.1365L80.1182 33.4805L80.2737 34.3504ZM78.2495 34.6746L78.2035 34.4178L77.0768 34.6193L77.1358 34.9494C77.1539 35.0507 77.1936 35.1212 77.2547 35.1607C77.3194 35.1996 77.4181 35.2072 77.5508 35.1835L77.8705 35.1263C78.0382 35.0963 78.1482 35.046 78.2005 34.9754C78.2569 34.9076 78.2732 34.8073 78.2495 34.6746ZM79.7468 34.4284L79.6972 34.1507L78.7276 34.324L78.7679 34.5494C78.7885 34.6647 78.8335 34.745 78.9029 34.7903C78.973 34.839 79.0778 34.8509 79.2176 34.8259L79.422 34.7894C79.6735 34.7444 79.7818 34.6241 79.7468 34.4284Z" fill="#B4B0AA"/>
<path opacity="0.3" d="M79.7629 36.6646L77.7629 36.8888C77.5196 36.9161 77.4091 37.0302 77.4317 37.2313C77.4542 37.4323 77.5872 37.5192 77.8306 37.4919L79.8305 37.2678C80.0739 37.2405 80.1843 37.1263 80.1617 36.9253C80.1392 36.7242 80.0063 36.6373 79.7629 36.6646ZM77.7348 36.3026L79.6606 36.0868C79.9569 36.0536 80.1947 36.1037 80.3739 36.2372C80.5532 36.3707 80.6588 36.5803 80.6908 36.866C80.7228 37.1517 80.6662 37.3795 80.521 37.5493C80.3757 37.7192 80.155 37.8207 79.8587 37.8539L77.9328 38.0698C77.6365 38.103 77.3988 38.0528 77.2195 37.9194C77.0403 37.7859 76.9346 37.5763 76.9026 37.2906C76.8706 37.0049 76.9272 36.7771 77.0724 36.6072C77.2177 36.4374 77.4385 36.3358 77.7348 36.3026Z" fill="#B4B0AA"/>
<path opacity="0.3" d="M78.5324 39.6704L78.5603 40.2233L78.0658 40.2483C77.7645 40.2635 77.5286 40.2008 77.358 40.0601C77.191 39.9193 77.1003 39.7071 77.086 39.4235C77.0717 39.1399 77.1406 38.9197 77.2926 38.7627C77.4481 38.6056 77.6765 38.5195 77.9778 38.5043L79.9133 38.4066C80.2146 38.3914 80.4488 38.4542 80.6158 38.595C80.7864 38.7357 80.8788 38.9478 80.8931 39.2314C80.9074 39.515 80.8368 39.7353 80.6813 39.8924C80.5293 40.0494 80.3026 40.1354 80.0013 40.1506L79.6397 40.1689L79.6118 39.6159L80.0106 39.5958C80.2552 39.5834 80.3724 39.4762 80.3622 39.2742C80.352 39.0721 80.2246 38.9773 79.98 38.9896L77.9701 39.091C77.7291 39.1032 77.6137 39.2103 77.6239 39.4123C77.6341 39.6144 77.7597 39.7093 78.0007 39.6972L78.5324 39.6704Z" fill="#B4B0AA"/>
<path opacity="0.3" d="M80.3876 40.7678L80.9199 40.7754L80.8942 42.5853L80.3619 42.5778L80.3706 41.9656L77.1765 41.9202L77.1848 41.3346L80.3789 41.38L80.3876 40.7678Z" fill="#B4B0AA"/>
<path opacity="0.3" d="M80.8001 44.3208C80.7546 44.9011 80.4257 45.1672 79.8136 45.1191L79.3306 45.0812C78.7184 45.0331 78.4351 44.7189 78.4807 44.1386L78.5024 43.8626L77.1065 43.753L77.1524 43.1691L80.8677 43.4609L80.8001 44.3208ZM80.2694 44.2791L80.2911 44.0031L79.0332 43.9043L79.0115 44.1803C79.004 44.2758 79.025 44.3487 79.0744 44.3988C79.1236 44.4525 79.2119 44.4844 79.3393 44.4944L79.8966 44.5382C80.024 44.5482 80.1161 44.5305 80.1731 44.4851C80.2298 44.4433 80.2619 44.3746 80.2694 44.2791Z" fill="#B4B0AA"/>
<path opacity="0.3" d="M79.73 46.3547L77.7378 46.0697C77.4954 46.035 77.3599 46.1178 77.3312 46.3181C77.3026 46.5184 77.4095 46.6358 77.6519 46.6705L79.6441 46.9555C79.8865 46.9902 80.022 46.9074 80.0507 46.7071C80.0793 46.5068 79.9724 46.3893 79.73 46.3547ZM77.8577 45.4952L79.776 45.7697C80.0712 45.8119 80.2888 45.9201 80.4288 46.0943C80.5688 46.2685 80.6184 46.4979 80.5777 46.7825C80.537 47.0671 80.425 47.2734 80.2418 47.4013C80.0586 47.5293 79.8194 47.5722 79.5242 47.5299L77.6059 47.2555C77.3107 47.2133 77.0931 47.1051 76.9531 46.9309C76.8131 46.7567 76.7635 46.5273 76.8042 46.2427C76.8449 45.9581 76.9569 45.7518 77.1401 45.6239C77.3233 45.4959 77.5625 45.453 77.8577 45.4952Z" fill="#B4B0AA"/>
<path opacity="0.3" d="M76.5312 48.1787L78.0983 49.0182L78.9428 49.4457L76.3772 48.8916L76.2659 49.4068L79.9087 50.1936L80.0447 49.5639L78.6419 48.7707L77.8855 48.3895L80.1908 48.8874L80.301 48.3774L76.6582 47.5906L76.5312 48.1787ZM80.8588 49.7288L80.7835 50.0775C80.6031 50.0385 80.4721 49.9558 80.3905 49.8292C80.3123 49.7034 80.2946 49.5416 80.3373 49.3439C80.3793 49.1496 80.4614 49.013 80.5838 48.9341C80.7054 48.8587 80.8589 48.8374 81.0442 48.8702L80.9678 49.224C80.8726 49.2108 80.8036 49.2194 80.7606 49.2501C80.7212 49.2815 80.6928 49.3371 80.6756 49.4169C80.6576 49.5002 80.6615 49.5664 80.6872 49.6155C80.7129 49.6646 80.7701 49.7024 80.8588 49.7288Z" fill="#B4B0AA"/>
<path opacity="0.3" d="M75.6295 51.7697L77.2154 51.643L76.9397 51.3731L75.8417 51.0496L76.0072 50.4879L79.582 51.541L79.4165 52.1028L77.8589 51.6439L79.1999 52.8382L79.0344 53.3999L77.6712 52.1492L75.4595 52.3468L75.6295 51.7697Z" fill="#B4B0AA"/>
<path opacity="0.3" d="M76.6221 54.1827L75.1911 53.1278L75.4009 52.5639L78.8938 53.8633L78.7119 54.3523L76.5014 53.53L77.1956 54.0154L78.4706 55.001L78.246 55.6047L74.7531 54.3054L74.9368 53.8114L77.3968 54.7265L76.6221 54.1827Z" fill="#B4B0AA"/>
<path opacity="0.3" d="M76.5635 59.3485C76.2966 59.8658 75.8903 59.9836 75.3446 59.7021L74.9141 59.4799C74.3684 59.1984 74.229 58.7989 74.4959 58.2817L74.6229 58.0356L73.3786 57.3936L73.6471 56.8731L76.959 58.582L76.5635 59.3485ZM76.0904 59.1044L76.2173 58.8583L75.096 58.2798L74.9691 58.5258C74.9251 58.6109 74.9162 58.6862 74.9424 58.7516C74.9669 58.8202 75.036 58.8838 75.1495 58.9424L75.6463 59.1987C75.7598 59.2573 75.8517 59.2767 75.9218 59.257C75.9902 59.2404 76.0464 59.1895 76.0904 59.1044Z" fill="#B4B0AA"/>
<path opacity="0.3" d="M74.8291 60.7487L73.1011 59.7173C72.8908 59.5918 72.7338 59.6159 72.6301 59.7896C72.5264 59.9633 72.5797 60.1129 72.79 60.2385L74.518 61.2699C74.7283 61.3954 74.8853 61.3713 74.989 61.1976C75.0927 61.0239 75.0394 60.8743 74.8291 60.7487ZM73.4332 59.2335L75.0973 60.2268C75.3533 60.3796 75.5123 60.5634 75.5742 60.7781C75.6362 60.9928 75.5935 61.2236 75.4462 61.4705C75.2988 61.7173 75.1159 61.8644 74.8975 61.9118C74.6791 61.9592 74.4419 61.9065 74.1859 61.7537L72.5219 60.7604C72.2659 60.6076 72.1069 60.4238 72.0449 60.2091C71.9829 59.9944 72.0256 59.7636 72.173 59.5167C72.3203 59.2699 72.5032 59.1227 72.7216 59.0754C72.94 59.028 73.1772 59.0807 73.4332 59.2335Z" fill="#B4B0AA"/>
<path opacity="0.3" d="M72.0192 62.42L71.7066 62.877L71.2979 62.5975C71.0489 62.4271 70.8991 62.2344 70.8485 62.0192C70.8009 61.8059 70.8572 61.5822 71.0175 61.3478C71.1778 61.1134 71.366 60.9798 71.5819 60.947C71.8009 60.9161 72.0348 60.9858 72.2838 61.1562L73.8833 62.2503C74.1324 62.4206 74.2807 62.6124 74.3284 62.8256C74.379 63.0408 74.3241 63.2656 74.1638 63.5C74.0035 63.7343 73.8139 63.8669 73.5949 63.8978C73.379 63.9307 73.1465 63.8619 72.8974 63.6916L72.5986 63.4872L72.9112 63.0302L73.2408 63.2556C73.4429 63.3939 73.6011 63.3795 73.7153 63.2126C73.8296 63.0456 73.7856 62.893 73.5835 62.7547L71.9224 61.6185C71.7232 61.4822 71.5665 61.4976 71.4523 61.6646C71.3381 61.8315 71.3806 61.9832 71.5798 62.1194L72.0192 62.42Z" fill="#B4B0AA"/>
<path opacity="0.3" d="M70.5264 64.4452L70.1846 64.8808L69.7951 64.575C69.5578 64.3888 69.4209 64.1866 69.3846 63.9685C69.351 63.7526 69.4218 63.533 69.5971 63.3097C69.7725 63.0863 69.969 62.9653 70.1867 62.9467C70.4071 62.9302 70.636 63.0151 70.8733 63.2014L72.3977 64.398C72.635 64.5843 72.7705 64.7854 72.8041 65.0012C72.8404 65.2193 72.771 65.44 72.5957 65.6634C72.4203 65.8867 72.2224 66.0066 72.002 66.0231C71.7843 66.0417 71.5568 65.9579 71.3195 65.7716L71.0347 65.5481L71.3766 65.1125L71.6907 65.3591C71.8833 65.5103 72.0421 65.5063 72.167 65.3472C72.2919 65.1881 72.2581 65.0329 72.0654 64.8817L70.4824 63.6391C70.2926 63.4901 70.1352 63.4951 70.0103 63.6543C69.8853 63.8134 69.9178 63.9675 70.1077 64.1165L70.5264 64.4452Z" fill="#B4B0AA"/>
<path opacity="0.3" d="M69.3582 66.3315L68.4189 64.8222L68.8223 64.3759L71.5869 66.875L71.237 67.262L69.4874 65.6805L69.9528 66.3882L70.7729 67.7755L70.3409 68.2534L67.5763 65.7543L67.9297 65.3633L69.8768 67.1233L69.3582 66.3315Z" fill="#B4B0AA"/>
<path opacity="0.3" d="M67.2141 68.5476L66.4 66.9672L66.8382 66.555L69.3916 69.2695L69.0116 69.627L67.3956 67.9091L67.8023 68.6522L68.5074 70.1012L68.0382 70.5426L65.4848 67.828L65.8687 67.4669L67.667 69.3787L67.2141 68.5476Z" fill="#B4B0AA"/>
</svg>
