<svg width="85" height="84" viewBox="0 0 85 84" fill="none" xmlns="http://www.w3.org/2000/svg">
<path d="M84.561 42C84.561 65.196 65.757 84 42.561 84C19.3651 84 0.561035 65.196 0.561035 42C0.561035 18.804 19.3651 0 42.561 0C65.757 0 84.561 18.804 84.561 42Z" fill="#EEECE8"/>
<path d="M25.7655 27.8107V30.6571H24.7259V24.0153H25.7655V26.8618H26.947V24.0153H28.0056V30.6571H26.947V27.8107H25.7655Z" fill="#B4B0AA"/>
<path d="M31.3491 24.0153L32.4077 30.6571H31.3586L31.179 29.4521H29.903L29.7235 30.6571H28.7688L29.8274 24.0153H31.3491ZM30.5363 25.1919L30.0354 28.5507H31.0372L30.5363 25.1919Z" fill="#B4B0AA"/>
<path d="M37.2112 31.5491H36.181V30.6571H33.9599V31.5491H32.9486V29.7273H33.355C33.5062 29.5375 33.5913 29.2497 33.6102 28.8639L33.8465 24.0153H36.7576V29.7273H37.2112V31.5491ZM34.82 24.9642L34.631 28.8449C34.6057 29.2687 34.5081 29.5628 34.338 29.7273H35.699V24.9642H34.82Z" fill="#B4B0AA"/>
<path d="M39.1137 24.9642V26.8144H40.5408V27.7632H39.1137V29.7083H40.9094V30.6571H38.074V24.0153H40.9094V24.9642H39.1137Z" fill="#B4B0AA"/>
<path d="M44.8334 24.0153V26.7005L46.0621 24.0153H47.1018L45.8258 26.71L47.1018 30.6571H46.0337L45.0886 27.7158L44.8334 28.2187V30.6571H43.8032V28.2187L43.548 27.7063L42.6028 30.6571H41.5348L42.8202 26.7385L41.5348 24.0153H42.5745L43.8032 26.7005V24.0153H44.8334Z" fill="#B4B0AA"/>
<path d="M48.8646 27.8107V30.6571H47.825V24.0153H48.8646V26.8618H50.0461V24.0153H51.1047V30.6571H50.0461V27.8107H48.8646Z" fill="#B4B0AA"/>
<path d="M53.6732 30.6571H52.142V24.0153H53.1817V26.5108H53.6732C54.7066 26.5108 55.2232 27.0579 55.2232 28.1522V29.0157C55.2232 30.11 54.7066 30.6571 53.6732 30.6571ZM53.1817 29.7083H53.6732C53.8433 29.7083 53.9693 29.6609 54.0513 29.566C54.1395 29.4711 54.1836 29.3098 54.1836 29.0821V28.0858C54.1836 27.8581 54.1395 27.6968 54.0513 27.6019C53.9693 27.507 53.8433 27.4596 53.6732 27.4596H53.1817V29.7083ZM56.8584 30.6571H55.8187V24.0153H56.8584V30.6571Z" fill="#B4B0AA"/>
<path d="M58.967 30.6571L59.8366 27.6114L60.2619 25.9794V30.6571H61.1976V24.0153H60.054L59.2033 26.7575L58.8253 28.2187V24.0153H57.899V30.6571H58.967ZM60.035 22.5352H60.6683C60.6683 22.8641 60.5738 23.1234 60.3848 23.3132C60.1957 23.4966 59.9216 23.5884 59.5625 23.5884C59.2096 23.5884 58.9418 23.4966 58.7591 23.3132C58.5827 23.1298 58.4881 22.8704 58.4755 22.5352H59.1183C59.1309 22.7059 59.1718 22.823 59.2411 22.8862C59.3104 22.9432 59.4175 22.9716 59.5625 22.9716C59.7137 22.9716 59.8271 22.94 59.9027 22.8767C59.9783 22.8135 60.0224 22.6996 60.035 22.5352Z" fill="#B4B0AA"/>
<path d="M24.1339 37.2847V36.9147C24.1339 36.63 24.0867 36.4339 23.9922 36.3264C23.9039 36.2126 23.7716 36.1556 23.5952 36.1556C23.2297 36.1556 23.047 36.3739 23.047 36.8103V37.3512H22.0924V36.8578C22.0924 36.3201 22.2216 35.9121 22.4799 35.6338C22.7382 35.3491 23.1195 35.2068 23.6235 35.2068C24.1276 35.2068 24.512 35.3523 24.7766 35.6433C25.0413 35.9279 25.1736 36.3391 25.1736 36.8767V37.0475C25.1736 37.756 24.931 38.2114 24.4458 38.4138C24.931 38.6289 25.1736 39.0938 25.1736 39.8086V40.3305C25.1736 40.8682 25.0413 41.2825 24.7766 41.5735C24.512 41.8581 24.1276 42.0004 23.6235 42.0004C23.1195 42.0004 22.7351 41.8581 22.4705 41.5735C22.2058 41.2825 22.0735 40.8682 22.0735 40.3305V39.5999H23.0564V40.3969C23.0564 40.8334 23.236 41.0516 23.5952 41.0516C23.7716 41.0516 23.9039 40.9978 23.9922 40.8903C24.0867 40.7764 24.1339 40.5803 24.1339 40.302V39.7802C24.1339 39.4765 24.0804 39.2615 23.9733 39.135C23.8661 39.0021 23.6929 38.9357 23.4534 38.9357H23.1982V37.9869H23.5101C23.7181 37.9869 23.8724 37.9331 23.9733 37.8256C24.0804 37.718 24.1339 37.5378 24.1339 37.2847Z" fill="#B4B0AA"/>
<path d="M28.4673 35.2827L29.5259 41.9245H28.4768L28.2972 40.7195H27.0212L26.8417 41.9245H25.887L26.9456 35.2827H28.4673ZM27.6545 36.4593L27.1536 39.8181H28.1554L27.6545 36.4593Z" fill="#B4B0AA"/>
<path d="M32.3257 39.4481H33.3087V40.3305C33.3087 40.8682 33.1763 41.2825 32.9117 41.5735C32.647 41.8581 32.2627 42.0004 31.7586 42.0004C31.2545 42.0004 30.8702 41.8581 30.6055 41.5735C30.3409 41.2825 30.2085 40.8682 30.2085 40.3305V36.8767C30.2085 36.3391 30.3409 35.9279 30.6055 35.6433C30.8702 35.3523 31.2545 35.2068 31.7586 35.2068C32.2627 35.2068 32.647 35.3523 32.9117 35.6433C33.1763 35.9279 33.3087 36.3391 33.3087 36.8767V37.5219H32.3257V36.8103C32.3257 36.3739 32.1461 36.1556 31.787 36.1556C31.4278 36.1556 31.2482 36.3739 31.2482 36.8103V40.3969C31.2482 40.827 31.4278 41.0421 31.787 41.0421C32.1461 41.0421 32.3257 40.827 32.3257 40.3969V39.4481Z" fill="#B4B0AA"/>
<path d="M33.9206 36.2315V35.2827H37.1341V36.2315H36.0472V41.9245H35.0075V36.2315H33.9206Z" fill="#B4B0AA"/>
<path d="M39.4067 35.2827C40.4401 35.2827 40.9567 35.8299 40.9567 36.9242V37.7876C40.9567 38.8819 40.4401 39.4291 39.4067 39.4291H38.9152V41.9245H37.8755V35.2827H39.4067ZM39.4067 36.2315H38.9152V38.4803H39.4067C39.5768 38.4803 39.7028 38.4328 39.7847 38.3379C39.873 38.2431 39.9171 38.0817 39.9171 37.854V36.8578C39.9171 36.63 39.873 36.4687 39.7847 36.3739C39.7028 36.279 39.5768 36.2315 39.4067 36.2315Z" fill="#B4B0AA"/>
<path d="M42.6765 36.8103V40.3969C42.6765 40.8334 42.8561 41.0516 43.2152 41.0516C43.5744 41.0516 43.754 40.8334 43.754 40.3969V36.8103C43.754 36.3739 43.5744 36.1556 43.2152 36.1556C42.8561 36.1556 42.6765 36.3739 42.6765 36.8103ZM41.6368 40.3305V36.8767C41.6368 36.3454 41.7723 35.9342 42.0432 35.6433C42.3142 35.3523 42.7048 35.2068 43.2152 35.2068C43.7256 35.2068 44.1163 35.3523 44.3872 35.6433C44.6582 35.9342 44.7936 36.3454 44.7936 36.8767V40.3305C44.7936 40.8618 44.6582 41.273 44.3872 41.564C44.1163 41.8549 43.7256 42.0004 43.2152 42.0004C42.7048 42.0004 42.3142 41.8549 42.0432 41.564C41.7723 41.273 41.6368 40.8618 41.6368 40.3305Z" fill="#B4B0AA"/>
<path d="M46.8208 41.9245L47.6904 38.8788L48.1157 37.2468V41.9245H49.0514V35.2827H47.9078L47.0571 38.0248L46.6791 39.486V35.2827H45.7528V41.9245H46.8208ZM47.8889 33.8025H48.5221C48.5221 34.1315 48.4276 34.3908 48.2386 34.5806C48.0496 34.764 47.7755 34.8557 47.4163 34.8557C47.0634 34.8557 46.7956 34.764 46.6129 34.5806C46.4365 34.3971 46.342 34.1378 46.3294 33.8025H46.9721C46.9847 33.9733 47.0256 34.0903 47.0949 34.1536C47.1643 34.2105 47.2714 34.239 47.4163 34.239C47.5675 34.239 47.6809 34.2074 47.7566 34.1441C47.8322 34.0808 47.8763 33.967 47.8889 33.8025Z" fill="#B4B0AA"/>
<path d="M55.0032 35.2827V40.9947H55.4663V42.8164H54.455V41.9245H50.0884V35.2827H51.128V40.9757H52.0259V35.2827H53.0656V40.9757H53.9635V35.2827H55.0032Z" fill="#B4B0AA"/>
<path d="M58.2536 38.8788L57.3841 41.9245H56.316V35.2827H57.2423V39.486L57.6204 38.0248L58.471 35.2827H59.6146V41.9245H58.6789V37.2468L58.2536 38.8788Z" fill="#B4B0AA"/>
<path d="M63.0055 41.9245L61.9941 39.2773L61.6728 39.8845V41.9245H60.6331V35.2827H61.6728V38.1766L63.0338 35.2827H64.0735L62.6274 38.2431L64.0735 41.9245H63.0055Z" fill="#B4B0AA"/>
<path d="M32.8262 46.5501C33.8596 46.5501 34.3763 47.0972 34.3763 48.1915V49.055C34.3763 50.1493 33.8596 50.6965 32.8262 50.6965H32.3347V53.1919H31.2951V46.5501H32.8262ZM32.8262 47.4989H32.3347V49.7476H32.8262C32.9964 49.7476 33.1224 49.7002 33.2043 49.6053C33.2925 49.5104 33.3366 49.3491 33.3366 49.1214V48.1251C33.3366 47.8974 33.2925 47.7361 33.2043 47.6412C33.1224 47.5463 32.9964 47.4989 32.8262 47.4989Z" fill="#B4B0AA"/>
<path d="M36.096 48.0777V51.6643C36.096 52.1007 36.2756 52.319 36.6348 52.319C36.9939 52.319 37.1735 52.1007 37.1735 51.6643V48.0777C37.1735 47.6412 36.9939 47.423 36.6348 47.423C36.2756 47.423 36.096 47.6412 36.096 48.0777ZM35.0563 51.5978V48.1441C35.0563 47.6128 35.1918 47.2016 35.4628 46.9106C35.7337 46.6196 36.1244 46.4742 36.6348 46.4742C37.1451 46.4742 37.5358 46.6196 37.8068 46.9106C38.0777 47.2016 38.2132 47.6128 38.2132 48.1441V51.5978C38.2132 52.1292 38.0777 52.5403 37.8068 52.8313C37.5358 53.1223 37.1451 53.2678 36.6348 53.2678C36.1244 53.2678 35.7337 53.1223 35.4628 52.8313C35.1918 52.5403 35.0563 52.1292 35.0563 51.5978Z" fill="#B4B0AA"/>
<path d="M41.2044 50.7154H42.1874V51.5978C42.1874 52.1355 42.0551 52.5498 41.7904 52.8408C41.5258 53.1255 41.1414 53.2678 40.6373 53.2678C40.1333 53.2678 39.7489 53.1255 39.4843 52.8408C39.2196 52.5498 39.0873 52.1355 39.0873 51.5978V48.1441C39.0873 47.6064 39.2196 47.1953 39.4843 46.9106C39.7489 46.6196 40.1333 46.4742 40.6373 46.4742C41.1414 46.4742 41.5258 46.6196 41.7904 46.9106C42.0551 47.1953 42.1874 47.6064 42.1874 48.1441V48.7893H41.2044V48.0777C41.2044 47.6412 41.0249 47.423 40.6657 47.423C40.3065 47.423 40.127 47.6412 40.127 48.0777V51.6643C40.127 52.0944 40.3065 52.3095 40.6657 52.3095C41.0249 52.3095 41.2044 52.0944 41.2044 51.6643V50.7154Z" fill="#B4B0AA"/>
<path d="M45.1339 50.7154H46.1168V51.5978C46.1168 52.1355 45.9845 52.5498 45.7198 52.8408C45.4552 53.1255 45.0708 53.2678 44.5668 53.2678C44.0627 53.2678 43.6783 53.1255 43.4137 52.8408C43.149 52.5498 43.0167 52.1355 43.0167 51.5978V48.1441C43.0167 47.6064 43.149 47.1953 43.4137 46.9106C43.6783 46.6196 44.0627 46.4742 44.5668 46.4742C45.0708 46.4742 45.4552 46.6196 45.7198 46.9106C45.9845 47.1953 46.1168 47.6064 46.1168 48.1441V48.7893H45.1339V48.0777C45.1339 47.6412 44.9543 47.423 44.5951 47.423C44.236 47.423 44.0564 47.6412 44.0564 48.0777V51.6643C44.0564 52.0944 44.236 52.3095 44.5951 52.3095C44.9543 52.3095 45.1339 52.0944 45.1339 51.6643V50.7154Z" fill="#B4B0AA"/>
<path d="M48.9688 50.1461L48.0992 53.1919H47.0312V46.5501H47.9574V50.7534L48.3355 49.2922L49.1861 46.5501H50.3298V53.1919H49.3941V48.5141L48.9688 50.1461Z" fill="#B4B0AA"/>
<path d="M53.2858 50.1461L52.4163 53.1919H51.3483V46.5501H52.2745V50.7534L52.6526 49.2922L53.5032 46.5501H54.6469V53.1919H53.7111V48.5141L53.2858 50.1461Z" fill="#B4B0AA"/>
<path d="M37.4788 59.4494C37.4788 59.1648 37.4315 58.9687 37.337 58.8611C37.2488 58.7473 37.1164 58.6904 36.94 58.6904C36.5809 58.6904 36.4013 58.9086 36.4013 59.3451V60.0567H35.4183V59.4115C35.4183 58.8738 35.5506 58.4626 35.8153 58.178C36.0799 57.887 36.4643 57.7415 36.9684 57.7415C37.4725 57.7415 37.8568 57.887 38.1215 58.178C38.3861 58.4626 38.5184 58.8738 38.5184 59.4115C38.5184 59.7973 38.446 60.1642 38.301 60.5121C38.1624 60.86 37.9891 61.1573 37.7812 61.404C37.5796 61.6507 37.3779 61.8816 37.1763 62.0967C36.9747 62.3117 36.8014 62.53 36.6565 62.7514C36.5178 62.9664 36.4485 63.172 36.4485 63.3681C36.4485 63.4314 36.4517 63.4788 36.458 63.5104H38.4239V64.4592H35.4183V63.6433C35.4183 63.2827 35.4876 62.9538 35.6262 62.6565C35.7712 62.3528 35.9445 62.0903 36.1461 61.8689C36.3477 61.6412 36.5493 61.4198 36.751 61.2048C36.9526 60.9834 37.1227 60.724 37.2614 60.4267C37.4063 60.1294 37.4788 59.8036 37.4788 59.4494Z" fill="#B4B0AA"/>
<path d="M40.4039 59.3451V62.9316C40.4039 63.3681 40.5834 63.5863 40.9426 63.5863C41.3018 63.5863 41.4813 63.3681 41.4813 62.9316V59.3451C41.4813 58.9086 41.3018 58.6904 40.9426 58.6904C40.5834 58.6904 40.4039 58.9086 40.4039 59.3451ZM39.3642 62.8652V59.4115C39.3642 58.8801 39.4997 58.469 39.7706 58.178C40.0416 57.887 40.4322 57.7415 40.9426 57.7415C41.453 57.7415 41.8437 57.887 42.1146 58.178C42.3855 58.469 42.521 58.8801 42.521 59.4115V62.8652C42.521 63.3966 42.3855 63.8077 42.1146 64.0987C41.8437 64.3897 41.453 64.5352 40.9426 64.5352C40.4322 64.5352 40.0416 64.3897 39.7706 64.0987C39.4997 63.8077 39.3642 63.3966 39.3642 62.8652Z" fill="#B4B0AA"/>
<path d="M45.5406 59.4494C45.5406 59.1648 45.4934 58.9687 45.3989 58.8611C45.3107 58.7473 45.1783 58.6904 45.0019 58.6904C44.6427 58.6904 44.4632 58.9086 44.4632 59.3451V60.0567H43.4802V59.4115C43.4802 58.8738 43.6125 58.4626 43.8772 58.178C44.1418 57.887 44.5262 57.7415 45.0303 57.7415C45.5343 57.7415 45.9187 57.887 46.1833 58.178C46.448 58.4626 46.5803 58.8738 46.5803 59.4115C46.5803 59.7973 46.5078 60.1642 46.3629 60.5121C46.2243 60.86 46.051 61.1573 45.8431 61.404C45.6415 61.6507 45.4398 61.8816 45.2382 62.0967C45.0366 62.3117 44.8633 62.53 44.7184 62.7514C44.5797 62.9664 44.5104 63.172 44.5104 63.3681C44.5104 63.4314 44.5136 63.4788 44.5199 63.5104H46.4858V64.4592H43.4802V63.6433C43.4802 63.2827 43.5495 62.9538 43.6881 62.6565C43.8331 62.3528 44.0063 62.0903 44.208 61.8689C44.4096 61.6412 44.6112 61.4198 44.8129 61.2048C45.0145 60.9834 45.1846 60.724 45.3233 60.4267C45.4682 60.1294 45.5406 59.8036 45.5406 59.4494Z" fill="#B4B0AA"/>
<path d="M48.6393 59.3451V62.9316C48.6393 63.3681 48.8188 63.5863 49.178 63.5863C49.5372 63.5863 49.7167 63.3681 49.7167 62.9316V59.3451C49.7167 58.9086 49.5372 58.6904 49.178 58.6904C48.8188 58.6904 48.6393 58.9086 48.6393 59.3451ZM47.5996 62.8652V59.4115C47.5996 58.8801 47.7351 58.469 48.006 58.178C48.277 57.887 48.6676 57.7415 49.178 57.7415C49.6884 57.7415 50.0791 57.887 50.35 58.178C50.6209 58.469 50.7564 58.8801 50.7564 59.4115V62.8652C50.7564 63.3966 50.6209 63.8077 50.35 64.0987C50.0791 64.3897 49.6884 64.5352 49.178 64.5352C48.6676 64.5352 48.277 64.3897 48.006 64.0987C47.7351 63.8077 47.5996 63.3966 47.5996 62.8652Z" fill="#B4B0AA"/>
<path opacity="0.3" d="M7.08712 49.4827L6.67626 49.5726L6.72294 49.7858C6.8474 50.3544 6.60972 50.7044 6.00989 50.8357L5.01654 51.0531C4.41671 51.1844 4.05457 50.9658 3.9301 50.3971L3.88343 50.1839L3.44656 50.2795L3.32361 49.7178L3.76048 49.6222L3.7138 49.409C3.58934 48.8404 3.82702 48.4904 4.42685 48.3591L5.4202 48.1417C6.02003 48.0104 6.38217 48.229 6.50664 48.7977L6.55331 49.0109L6.96418 48.921L7.08712 49.4827ZM4.21828 49.2986L4.26496 49.5118L6.05404 49.1202L6.00736 48.907C5.96562 48.7163 5.8234 48.6475 5.58069 48.7006L4.51453 48.934C4.27529 48.9863 4.17654 49.1079 4.21828 49.2986ZM6.17698 49.6819L4.3879 50.0735L4.43458 50.2867C4.47632 50.4774 4.61681 50.5466 4.85605 50.4942L5.92221 50.2608C6.16492 50.2077 6.2654 50.0858 6.22366 49.8951L6.17698 49.6819Z" fill="#B4B0AA"/>
<path opacity="0.3" d="M3.37712 47.0594L4.40535 46.9161L4.29438 46.1198L4.82168 46.0464L4.93265 46.8426L6.01361 46.6919L5.87397 45.69L6.40127 45.6166L6.62175 47.1984L2.93066 47.7129L2.71019 46.131L3.23749 46.0575L3.37712 47.0594Z" fill="#B4B0AA"/>
<path opacity="0.3" d="M6.6562 42.6196L6.69429 43.1986L6.19492 43.2315L6.27704 44.4799L6.77641 44.4471L6.8138 45.0155L5.79381 45.0826L5.77878 44.8542C5.66694 44.7762 5.50265 44.7389 5.28591 44.7425L2.56251 44.7883L2.45488 43.152L5.65298 42.9417L5.6362 42.6867L6.6562 42.6196ZM3.05776 44.2062L5.23755 44.1695C5.47577 44.168 5.64406 44.2121 5.74244 44.3017L5.69212 43.5367L3.02526 43.7121L3.05776 44.2062Z" fill="#B4B0AA"/>
<path opacity="0.3" d="M2.94935 41.4531L3.9875 41.4599L3.99283 40.6561L4.52521 40.6596L4.51988 41.4635L5.61127 41.4707L5.61797 40.4592L6.15036 40.4627L6.13976 42.0599L2.41309 42.0352L2.42368 40.438L2.95606 40.4415L2.94935 41.4531Z" fill="#B4B0AA"/>
<path opacity="0.3" d="M2.51126 38.6534C2.55247 38.0727 2.87932 37.8042 3.49181 37.8476L3.97507 37.8819C4.58756 37.9254 4.87319 38.2375 4.83198 38.8181L4.81238 39.0942L6.20907 39.1934L6.1676 39.7775L2.4502 39.5137L2.51126 38.6534ZM3.04232 38.6911L3.02272 38.9672L4.28132 39.0565L4.30092 38.7804C4.30771 38.6848 4.28618 38.6121 4.23634 38.5623C4.18676 38.509 4.09823 38.4778 3.97078 38.4687L3.41317 38.4292C3.28572 38.4201 3.19368 38.4385 3.13705 38.4843C3.08068 38.5265 3.0491 38.5955 3.04232 38.6911Z" fill="#B4B0AA"/>
<path opacity="0.3" d="M2.82128 35.7296L6.59435 35.6389L6.51504 36.2245L5.83144 36.234L5.73498 36.9462L6.39143 37.1372L6.31927 37.6701L2.70624 36.579L2.82128 35.7296ZM3.41403 36.2719L5.24379 36.8045L5.31952 36.2453L3.41403 36.2719Z" fill="#B4B0AA"/>
<path opacity="0.3" d="M6.61318 35.4581L6.09196 35.3496C6.12091 35.2106 6.11923 35.1142 6.08694 35.0603C6.0519 35.0023 5.95309 34.9545 5.7905 34.917L3.05282 34.249L3.39037 32.628L7.03886 33.3878L6.9173 33.9716L3.79002 33.3203L3.68582 33.8207L5.87753 34.3424C6.20894 34.4223 6.43249 34.5413 6.54818 34.6996C6.66387 34.8578 6.69169 35.0811 6.63163 35.3695L6.61318 35.4581Z" fill="#B4B0AA"/>
<path opacity="0.3" d="M7.4771 31.6954L7.24251 32.5254L3.65625 31.5117L3.81554 30.9482L5.16295 31.329L5.23825 31.0626C5.39657 30.5025 5.77117 30.3059 6.36205 30.4729L6.82826 30.6047C7.41914 30.7717 7.63542 31.1353 7.4771 31.6954ZM6.88947 31.817L6.96477 31.5506C6.99084 31.4584 6.98453 31.3828 6.94585 31.324C6.90813 31.2617 6.8278 31.2131 6.70484 31.1784L6.1669 31.0263C6.04394 30.9916 5.95009 30.9909 5.88534 31.0242C5.82156 31.0541 5.77664 31.1152 5.75057 31.2074L5.67527 31.4738L6.88947 31.817Z" fill="#B4B0AA"/>
<path opacity="0.3" d="M6.57161 29.2205L8.0726 29.7664L7.87244 30.3167L4.37012 29.043L4.57028 28.4926L6.07128 29.0385L6.29873 28.4131L4.79774 27.8672L5.00154 27.3068L8.50386 28.5806L8.30006 29.141L6.79907 28.5951L6.57161 29.2205Z" fill="#B4B0AA"/>
<path opacity="0.3" d="M9.21131 26.8657L8.8468 27.6473L5.46924 26.0723L5.71675 25.5415L6.98575 26.1333L7.10275 25.8824C7.34876 25.3548 7.75001 25.2208 8.30651 25.4803L8.74559 25.6851C9.30208 25.9446 9.45732 26.3381 9.21131 26.8657ZM8.6118 26.8916L8.7288 26.6407C8.76931 26.5538 8.77518 26.4782 8.74643 26.4139C8.71918 26.3464 8.64766 26.2856 8.53185 26.2316L8.02522 25.9953C7.90942 25.9413 7.81689 25.9256 7.74764 25.9481C7.67989 25.9675 7.62576 26.0205 7.58526 26.1074L7.46825 26.3583L8.6118 26.8916ZM9.9696 25.2396L9.72208 25.7704L6.34453 24.1953L6.59204 23.6645L9.9696 25.2396Z" fill="#B4B0AA"/>
<path opacity="0.3" d="M10.6201 24.0311L9.38497 22.7524L8.71173 22.0871L10.9848 23.3994L11.2483 22.943L8.02085 21.0796L7.69875 21.6375L8.79166 22.8217L9.39522 23.4161L7.3527 22.2369L7.09182 22.6887L10.3193 24.5521L10.6201 24.0311ZM6.97416 21.2314L7.15252 20.9225C7.31235 21.0148 7.41176 21.1337 7.45073 21.2791C7.48663 21.4228 7.454 21.5822 7.35285 21.7574C7.25347 21.9296 7.13348 22.0345 6.99287 22.0721C6.85404 22.1067 6.7014 22.0801 6.53494 21.9922L6.71595 21.6787C6.80249 21.7204 6.87089 21.7333 6.92115 21.7172C6.96834 21.6994 7.01234 21.6551 7.05316 21.5844C7.09575 21.5106 7.11232 21.4464 7.10288 21.3918C7.09344 21.3372 7.05053 21.2837 6.97416 21.2314Z" fill="#B4B0AA"/>
<path opacity="0.3" d="M11.7751 19.2642L13.0493 20.2273L12.6961 20.6945L9.72314 18.4473L10.0763 17.9801L11.3504 18.9432L11.7517 18.4123L10.4776 17.4492L10.8371 16.9735L13.8101 19.2208L13.4506 19.6965L12.1764 18.7333L11.7751 19.2642Z" fill="#B4B0AA"/>
<path opacity="0.3" d="M12.431 15.8778L13.2112 16.5626L13.7415 15.9584L14.1417 16.3096L13.6114 16.9138L14.4317 17.6338L15.0989 16.8735L15.4991 17.2247L14.4455 18.4251L11.6445 15.9668L12.6981 14.7664L13.0982 15.1176L12.431 15.8778Z" fill="#B4B0AA"/>
<path opacity="0.3" d="M16.8951 15.7786L15.4403 15.1349L15.5542 15.5035L16.3657 16.3108L15.9527 16.726L13.3105 14.0977L13.7236 13.6825L14.8748 14.8277L14.2642 13.1389L14.6773 12.7238L15.2804 14.4727L17.3194 15.3521L16.8951 15.7786Z" fill="#B4B0AA"/>
<path opacity="0.3" d="M16.0658 12.6247L17.4006 14.1308C17.5631 14.3141 17.72 14.3386 17.8714 14.2044C18.0228 14.0702 18.0173 13.9115 17.8549 13.7282L16.52 12.2222C16.3576 12.0389 16.2007 12.0144 16.0493 12.1485C15.8979 12.2827 15.9034 12.4415 16.0658 12.6247ZM16.9377 14.4913L15.6523 13.0411C15.4545 12.818 15.3586 12.5947 15.3645 12.3713C15.3704 12.1479 15.481 11.9408 15.6961 11.7501C15.9113 11.5594 16.1301 11.4746 16.3526 11.4955C16.5751 11.5165 16.7853 11.6385 16.983 11.8616L18.2684 13.3119C18.4662 13.535 18.5621 13.7583 18.5561 13.9817C18.5502 14.2051 18.4397 14.4122 18.2245 14.6028C18.0094 14.7935 17.7906 14.8784 17.5681 14.8575C17.3455 14.8365 17.1354 14.7145 16.9377 14.4913Z" fill="#B4B0AA"/>
<path opacity="0.3" d="M17.663 10.1599L19.5951 12.0184L18.3276 9.66171L18.9793 9.17313L21.2146 12.1551L20.7716 12.4872L19.1686 10.3487L20.4478 12.7299L20.0048 13.062L18.0748 11.2152L19.6555 13.3238L19.2465 13.6304L17.0112 10.6484L17.663 10.1599Z" fill="#B4B0AA"/>
<path opacity="0.3" d="M20.7353 7.99474L22.4843 10.0266L21.4437 7.56122L22.1385 7.13603L24.0838 10.3148L23.6115 10.6038L22.2165 8.32418L23.2664 10.815L22.7941 11.104L21.0462 9.08407L22.4218 11.3319L21.9858 11.5987L20.0405 8.41992L20.7353 7.99474Z" fill="#B4B0AA"/>
<path opacity="0.3" d="M24.019 6.72945L24.4886 7.65535L25.2055 7.29172L25.4464 7.76654L24.7294 8.13017L25.223 9.10355L26.1252 8.646L26.366 9.12082L24.9416 9.84326L23.2559 6.51953L24.6803 5.79709L24.9211 6.27191L24.019 6.72945Z" fill="#B4B0AA"/>
<path opacity="0.3" d="M26.3017 5.0611C26.8369 4.83212 27.2252 4.99988 27.4668 5.5644L27.6574 6.00982C27.8989 6.57434 27.7521 6.97109 27.217 7.20008L26.9624 7.30899L27.5133 8.59629L26.9749 8.82667L25.5088 5.40039L26.3017 5.0611ZM26.5112 5.55057L26.2566 5.65948L26.753 6.81952L27.0075 6.71061C27.0956 6.67291 27.1504 6.62051 27.1719 6.55342C27.1966 6.48492 27.1839 6.39194 27.1336 6.27447L26.9137 5.76052C26.8634 5.64305 26.805 5.56961 26.7384 5.54022C26.675 5.50942 26.5993 5.51287 26.5112 5.55057Z" fill="#B4B0AA"/>
<path opacity="0.3" d="M28.9585 4.03306L29.5116 3.84047L30.7372 7.35995L30.1841 7.55254L29.6904 6.13469C29.6152 6.30744 29.4805 6.42766 29.2861 6.49535C29.0648 6.57239 28.8688 6.55985 28.6979 6.45774C28.5293 6.35111 28.4017 6.17378 28.3154 5.92574L27.7971 4.4375L28.3502 4.24491L28.8527 5.6879C28.8923 5.80186 28.9529 5.8785 29.0342 5.91783C29.1144 5.9538 29.2014 5.95545 29.2953 5.92276C29.3858 5.89125 29.4456 5.83657 29.4749 5.75873C29.503 5.67753 29.4966 5.57828 29.4558 5.46096L28.9585 4.03306Z" fill="#B4B0AA"/>
<path opacity="0.3" d="M31.6469 3.75407L31.9117 4.75789L32.689 4.55282L32.8248 5.0676L32.0475 5.27267L32.3259 6.32797L33.304 6.06994L33.4398 6.58472L31.8955 6.99214L30.9448 3.38867L32.4892 2.98125L32.625 3.49603L31.6469 3.75407Z" fill="#B4B0AA"/>
<path opacity="0.3" d="M34.9496 4.83797L35.4926 4.73002L35.5892 5.21565C35.648 5.51155 35.6202 5.7541 35.5058 5.9433C35.3907 6.12901 35.1939 6.24955 34.9155 6.30491C34.637 6.36026 34.409 6.32415 34.2317 6.19655C34.0536 6.06548 33.9352 5.85199 33.8764 5.55609L33.4986 3.65536C33.4398 3.35946 33.4679 3.11865 33.583 2.93294C33.6974 2.74374 33.8938 2.62146 34.1723 2.56611C34.4508 2.51075 34.6791 2.54861 34.8571 2.67968C35.0344 2.80727 35.1525 3.01902 35.2113 3.31492L35.2819 3.67L34.7389 3.77795L34.661 3.38631C34.6133 3.14611 34.4902 3.04573 34.2918 3.08517C34.0933 3.12461 34.018 3.26443 34.0657 3.50464L34.4581 5.47847C34.5051 5.71519 34.6279 5.81383 34.8263 5.77439C35.0247 5.73495 35.1004 5.59687 35.0534 5.36015L34.9496 4.83797Z" fill="#B4B0AA"/>
<path opacity="0.3" d="M37.6555 5.81639L36.8916 4.42092L36.758 4.78287L36.9116 5.91715L36.3313 5.99577L35.8311 2.30273L36.4114 2.22412L36.6294 3.83323L37.1711 2.12121L37.7514 2.0426L37.1672 3.79798L38.2517 5.73563L37.6555 5.81639Z" fill="#B4B0AA"/>
<path opacity="0.3" d="M39.5551 3.92691L39.1719 5.66291L38.5715 5.7001L38.3411 1.98047L38.8618 1.94821L39.0076 4.30221L39.1695 3.47072L39.5526 1.90542L40.1956 1.86559L40.426 5.58522L39.8999 5.61781L39.7376 2.99813L39.5551 3.92691Z" fill="#B4B0AA"/>
<path opacity="0.3" d="M42.008 5.55176L42.5285 3.85187L42.7845 2.94061L42.7373 5.56489L43.2643 5.57437L43.3313 1.84822L42.6872 1.83662L42.1805 3.36637L41.9528 4.18229L41.9952 1.82417L41.4736 1.81478L41.4065 5.54093L42.008 5.55176ZM42.6915 1.00603L43.0482 1.01245C43.0449 1.19698 42.989 1.34152 42.8806 1.44607C42.7723 1.54707 42.617 1.59574 42.4148 1.5921C42.216 1.58852 42.0661 1.53435 41.9651 1.42959C41.8676 1.32489 41.8169 1.17843 41.8132 0.99022L42.1752 0.996736C42.1806 1.09268 42.2025 1.15875 42.2409 1.19494C42.2793 1.22758 42.3394 1.24463 42.421 1.2461C42.5061 1.24763 42.5703 1.23104 42.6136 1.19632C42.6568 1.1616 42.6828 1.09817 42.6915 1.00603Z" fill="#B4B0AA"/>
<path opacity="0.3" d="M46.9855 2.6841L46.5213 5.84457L45.9419 5.75948L46.4834 2.07227L48.3112 2.34069L47.7697 6.0279L47.1798 5.94126L47.6439 2.78079L46.9855 2.6841Z" fill="#B4B0AA"/>
<path opacity="0.3" d="M50.3939 2.74575C50.9624 2.87074 51.1807 3.23309 51.0489 3.8328L50.9448 4.30597C50.813 4.90568 50.4628 5.14303 49.8943 5.01804L49.6239 4.95859L49.3232 6.32613L48.7513 6.20037L49.5515 2.56055L50.3939 2.74575ZM50.2795 3.26573L50.0092 3.20628L49.7382 4.43862L50.0086 4.49807C50.1022 4.51864 50.1772 4.50789 50.2337 4.4658C50.2937 4.42447 50.3374 4.34141 50.3648 4.21662L50.4849 3.67064C50.5123 3.54585 50.5075 3.45212 50.4704 3.38945C50.4368 3.32755 50.3731 3.2863 50.2795 3.26573Z" fill="#B4B0AA"/>
<path opacity="0.3" d="M52.2932 4.0997L51.7316 6.0322C51.6633 6.26737 51.7262 6.41318 51.9205 6.46964C52.1148 6.5261 52.2461 6.43674 52.3144 6.20157L52.876 4.26907C52.9444 4.0339 52.8814 3.88808 52.6871 3.83163C52.4929 3.77517 52.3616 3.86453 52.2932 4.0997ZM51.1796 5.83298L51.7204 3.97205C51.8036 3.68576 51.9413 3.48551 52.1334 3.37132C52.3255 3.25713 52.5596 3.24015 52.8357 3.32038C53.1118 3.40061 53.3003 3.54041 53.4013 3.73979C53.5023 3.93916 53.5112 4.18199 53.428 4.46829L52.8872 6.32921C52.804 6.61551 52.6663 6.81575 52.4742 6.92994C52.2821 7.04413 52.048 7.06111 51.7719 6.98089C51.4959 6.90066 51.3073 6.76085 51.2063 6.56148C51.1053 6.36211 51.0964 6.11928 51.1796 5.83298Z" fill="#B4B0AA"/>
<path opacity="0.3" d="M54.7816 4.54094L54.4303 5.51788L55.1868 5.78988L55.0067 6.29088L54.2502 6.01887L53.8809 7.04591L54.8328 7.38817L54.6527 7.88916L53.1497 7.34876L54.4106 3.8418L55.9136 4.3822L55.7335 4.8832L54.7816 4.54094Z" fill="#B4B0AA"/>
<path opacity="0.3" d="M56.501 8.65439L56.5662 7.06485L56.2651 7.30603L55.8117 8.35708L55.274 8.12513L56.75 4.70312L57.2877 4.93507L56.6446 6.42609L57.9917 5.23871L58.5294 5.47065L57.1236 6.67328L57.0534 8.89266L56.501 8.65439Z" fill="#B4B0AA"/>
<path opacity="0.3" d="M58.6726 6.12245L58.915 5.64844L60.5267 6.47262L60.2843 6.94663L59.7391 6.66786L58.2847 9.5119L57.7633 9.24526L59.2177 6.40121L58.6726 6.12245Z" fill="#B4B0AA"/>
<path opacity="0.3" d="M62.2069 9.93005L61.3196 11.2581L60.8327 10.9327L62.9031 7.83398L63.39 8.15933L62.5027 9.48737L63.0561 9.85708L63.9434 8.52904L64.4392 8.8603L62.3688 11.9591L61.873 11.6278L62.7603 10.2998L62.2069 9.93005Z" fill="#B4B0AA"/>
<path opacity="0.3" d="M66.5206 10.4069L64.7006 13.7133L64.2344 13.3501L64.5701 12.7545L64.0032 12.3128L63.5078 12.784L63.0836 12.4535L65.8444 9.88013L66.5206 10.4069ZM65.7537 10.6463L64.3728 11.9596L64.818 12.3065L65.7537 10.6463Z" fill="#B4B0AA"/>
<path opacity="0.3" d="M66.3238 15.8124L65.8919 15.4248L66.2261 15.0523L65.2949 14.2167L64.9607 14.5892L64.5367 14.2088L65.2194 13.4479L65.3897 13.6008C65.5243 13.5785 65.6678 13.4903 65.8203 13.3363L67.7363 11.4003L68.9568 12.4954L66.8163 14.8809L67.0065 15.0515L66.3238 15.8124ZM67.7889 12.1628L66.2554 13.7123C66.086 13.8798 65.9348 13.9659 65.8019 13.9706L66.3725 14.4826L68.1574 12.4934L67.7889 12.1628Z" fill="#B4B0AA"/>
<path opacity="0.3" d="M69.804 14.0744L69.0557 14.794L69.6129 15.3734L69.2292 15.7425L68.672 15.163L67.8853 15.9196L68.5865 16.6487L68.2028 17.0177L67.0956 15.8665L69.7817 13.2832L70.8889 14.4344L70.5051 14.8034L69.804 14.0744Z" fill="#B4B0AA"/>
<path opacity="0.3" d="M72.5906 16.3924L71.4267 17.3491L73.0301 16.927L73.402 17.3794L71.7776 17.7844L70.5231 19.746L70.1411 19.2813L71.0779 17.8219L70.7686 17.8901L69.7117 18.759L69.3432 18.3107L70.4001 17.4418L70.5309 17.1482L68.9138 17.7884L68.5318 17.3236L70.6901 16.4867L71.4106 14.957L71.7825 15.4094L71.0582 16.9009L72.2221 15.9441L72.5906 16.3924Z" fill="#B4B0AA"/>
<path opacity="0.3" d="M72.4075 19.6554L71.091 20.5599L70.7594 20.0772L73.8311 17.9668L74.1627 18.4495L72.8463 19.3539L73.2231 19.9024L74.5395 18.998L74.8772 19.4895L71.8055 21.5998L71.4679 21.1084L72.7843 20.2039L72.4075 19.6554Z" fill="#B4B0AA"/>
<path opacity="0.3" d="M72.8143 23.2123L72.3923 22.4601L75.6426 20.6367L75.9291 21.1475L74.708 21.8325L74.8434 22.074C75.1282 22.5816 75.0028 22.9857 74.4673 23.2861L74.0448 23.5231C73.5093 23.8236 73.0991 23.72 72.8143 23.2123ZM73.1432 22.7104L73.2787 22.9518C73.3255 23.0354 73.3835 23.0843 73.4525 23.0985C73.5232 23.1158 73.6143 23.0931 73.7258 23.0306L74.2133 22.7571C74.3247 22.6946 74.3915 22.6287 74.4136 22.5593C74.4375 22.493 74.426 22.4181 74.3791 22.3345L74.2436 22.093L73.1432 22.7104ZM73.6922 24.7771L73.4056 24.2663L76.6559 22.4429L76.9424 22.9537L73.6922 24.7771Z" fill="#B4B0AA"/>
<path opacity="0.3" d="M77.1878 24.6725L76.2447 25.1064L76.5806 25.8367L76.097 26.0592L75.761 25.3289L74.7695 25.785L75.1922 26.704L74.7085 26.9264L74.041 25.4754L77.4268 23.918L78.0942 25.369L77.6106 25.5915L77.1878 24.6725Z" fill="#B4B0AA"/>
<path opacity="0.3" d="M77.3082 29.2032L75.7881 29.6934L75.6084 29.136L79.1553 27.9922L79.335 28.5496L77.8149 29.0398L78.0192 29.6731L79.5393 29.1829L79.7223 29.7504L76.1754 30.8943L75.9924 30.3268L77.5125 29.8366L77.3082 29.2032Z" fill="#B4B0AA"/>
<path opacity="0.3" d="M79.4092 31.811L77.4538 32.2867C77.2158 32.3446 77.1208 32.4718 77.1686 32.6684C77.2164 32.865 77.3593 32.9343 77.5973 32.8765L79.5527 32.4007C79.7906 32.3429 79.8857 32.2156 79.8379 32.019C79.7901 31.8225 79.6472 31.7531 79.4092 31.811ZM77.3516 31.7089L79.2346 31.2508C79.5243 31.1803 79.7665 31.1999 79.9612 31.3096C80.1559 31.4193 80.2872 31.6139 80.3552 31.8932C80.4231 32.1725 80.3958 32.4057 80.2733 32.5925C80.1507 32.7794 79.9446 32.9081 79.6549 32.9786L77.7719 33.4367C77.4822 33.5072 77.24 33.4875 77.0453 33.3778C76.8506 33.2681 76.7192 33.0736 76.6513 32.7943C76.5833 32.5149 76.6106 32.2818 76.7332 32.0949C76.8557 31.908 77.0619 31.7794 77.3516 31.7089Z" fill="#B4B0AA"/>
<path opacity="0.3" d="M80.8348 34.3504C80.8879 34.6474 80.8567 34.8765 80.7413 35.0378C80.6294 35.1984 80.4303 35.3043 80.1438 35.3556L80.0127 35.379C79.6354 35.4465 79.3669 35.3665 79.2072 35.1391C79.1467 35.4455 78.9102 35.6356 78.498 35.7094L78.1992 35.7628C77.9162 35.8134 77.6862 35.777 77.5091 35.6536C77.3361 35.5331 77.224 35.3296 77.1728 35.0431L77.0106 34.1365L80.6792 33.4805L80.8348 34.3504ZM78.8105 34.6746L78.7646 34.4178L77.6378 34.6193L77.6968 34.9494C77.715 35.0507 77.7546 35.1212 77.8158 35.1607C77.8804 35.1996 77.9791 35.2072 78.1119 35.1835L78.4316 35.1263C78.5993 35.0963 78.7093 35.046 78.7615 34.9754C78.8179 34.9076 78.8342 34.8073 78.8105 34.6746ZM80.3079 34.4284L80.2582 34.1507L79.2887 34.324L79.329 34.5494C79.3496 34.6647 79.3946 34.745 79.464 34.7903C79.534 34.839 79.6389 34.8509 79.7786 34.8259L79.983 34.7894C80.2346 34.7444 80.3429 34.6241 80.3079 34.4284Z" fill="#B4B0AA"/>
<path opacity="0.3" d="M80.3239 36.6646L78.324 36.8888C78.0806 36.9161 77.9702 37.0302 77.9927 37.2313C78.0153 37.4323 78.1482 37.5192 78.3916 37.4919L80.3915 37.2678C80.6349 37.2405 80.7453 37.1263 80.7228 36.9253C80.7002 36.7242 80.5673 36.6373 80.3239 36.6646ZM78.2958 36.3026L80.2216 36.0868C80.5179 36.0536 80.7557 36.1037 80.935 36.2372C81.1142 36.3707 81.2198 36.5803 81.2519 36.866C81.2839 37.1517 81.2273 37.3795 81.082 37.5493C80.9368 37.7192 80.716 37.8207 80.4197 37.8539L78.4938 38.0698C78.1976 38.103 77.9598 38.0528 77.7805 37.9194C77.6013 37.7859 77.4957 37.5763 77.4636 37.2906C77.4316 37.0049 77.4882 36.7771 77.6335 36.6072C77.7787 36.4374 77.9995 36.3358 78.2958 36.3026Z" fill="#B4B0AA"/>
<path opacity="0.3" d="M79.0935 39.6704L79.1214 40.2233L78.6269 40.2483C78.3256 40.2635 78.0896 40.2008 77.9191 40.0601C77.752 39.9193 77.6614 39.7071 77.6471 39.4235C77.6327 39.1399 77.7016 38.9197 77.8536 38.7627C78.0091 38.6056 78.2376 38.5195 78.5389 38.5043L80.4743 38.4066C80.7756 38.3914 81.0098 38.4542 81.1768 38.595C81.3474 38.7357 81.4398 38.9478 81.4542 39.2314C81.4685 39.515 81.3978 39.7353 81.2423 39.8924C81.0903 40.0494 80.8636 40.1354 80.5623 40.1506L80.2008 40.1689L80.1729 39.6159L80.5717 39.5958C80.8162 39.5834 80.9334 39.4762 80.9232 39.2742C80.913 39.0721 80.7857 38.9773 80.5411 38.9896L78.5312 39.091C78.2901 39.1032 78.1747 39.2103 78.1849 39.4123C78.1951 39.6144 78.3207 39.7093 78.5618 39.6972L79.0935 39.6704Z" fill="#B4B0AA"/>
<path opacity="0.3" d="M80.9486 40.7678L81.481 40.7754L81.4552 42.5853L80.9229 42.5778L80.9316 41.9656L77.7375 41.9202L77.7459 41.3346L80.9399 41.38L80.9486 40.7678Z" fill="#B4B0AA"/>
<path opacity="0.3" d="M81.3612 44.3208C81.3156 44.9011 80.9867 45.1672 80.3746 45.1191L79.8916 45.0812C79.2795 45.0331 78.9962 44.7189 79.0418 44.1386L79.0634 43.8626L77.6675 43.753L77.7134 43.1691L81.4287 43.4609L81.3612 44.3208ZM80.8304 44.2791L80.8521 44.0031L79.5942 43.9043L79.5725 44.1803C79.565 44.2758 79.586 44.3487 79.6355 44.3988C79.6846 44.4525 79.7729 44.4844 79.9003 44.4944L80.4576 44.5382C80.585 44.5482 80.6772 44.5305 80.7341 44.4851C80.7908 44.4433 80.8229 44.3746 80.8304 44.2791Z" fill="#B4B0AA"/>
<path opacity="0.3" d="M80.291 46.3547L78.2989 46.0697C78.0564 46.035 77.9209 46.1178 77.8922 46.3181C77.8636 46.5184 77.9705 46.6358 78.2129 46.6705L80.2051 46.9555C80.4475 46.9902 80.5831 46.9074 80.6117 46.7071C80.6404 46.5068 80.5335 46.3893 80.291 46.3547ZM78.4187 45.4952L80.3371 45.7697C80.6322 45.8119 80.8498 45.9201 80.9898 46.0943C81.1298 46.2685 81.1795 46.4979 81.1388 46.7825C81.098 47.0671 80.9861 47.2734 80.8028 47.4013C80.6196 47.5293 80.3804 47.5722 80.0853 47.5299L78.1669 47.2555C77.8718 47.2133 77.6542 47.1051 77.5142 46.9309C77.3742 46.7567 77.3245 46.5273 77.3652 46.2427C77.4059 45.9581 77.5179 45.7518 77.7011 45.6239C77.8844 45.4959 78.1236 45.453 78.4187 45.4952Z" fill="#B4B0AA"/>
<path opacity="0.3" d="M77.0922 48.1787L78.6593 49.0182L79.5038 49.4457L76.9383 48.8916L76.827 49.4068L80.4697 50.1936L80.6057 49.5639L79.203 48.7707L78.4465 48.3895L80.7519 48.8874L80.862 48.3774L77.2192 47.5906L77.0922 48.1787ZM81.4198 49.7288L81.3445 50.0775C81.1641 50.0385 81.0331 49.9558 80.9515 49.8292C80.8734 49.7034 80.8557 49.5416 80.8984 49.3439C80.9403 49.1496 81.0225 49.013 81.1448 48.9341C81.2664 48.8587 81.4199 48.8374 81.6053 48.8702L81.5288 49.224C81.4337 49.2108 81.3646 49.2194 81.3217 49.2501C81.2822 49.2815 81.2539 49.3371 81.2366 49.4169C81.2186 49.5002 81.2225 49.5664 81.2482 49.6155C81.2739 49.6646 81.3311 49.7024 81.4198 49.7288Z" fill="#B4B0AA"/>
<path opacity="0.3" d="M76.1906 51.7697L77.7764 51.643L77.5007 51.3731L76.4027 51.0496L76.5682 50.4879L80.1431 51.541L79.9776 52.1028L78.42 51.6439L79.7609 52.8382L79.5954 53.3999L78.2322 52.1492L76.0206 52.3468L76.1906 51.7697Z" fill="#B4B0AA"/>
<path opacity="0.3" d="M77.1831 54.1827L75.7522 53.1278L75.9619 52.5639L79.4548 53.8633L79.2729 54.3523L77.0624 53.53L77.7566 54.0154L79.0316 55.001L78.807 55.6047L75.3141 54.3054L75.4979 53.8114L77.9579 54.7265L77.1831 54.1827Z" fill="#B4B0AA"/>
<path opacity="0.3" d="M77.1245 59.3485C76.8576 59.8658 76.4513 59.9836 75.9057 59.7021L75.4751 59.4799C74.9294 59.1984 74.7901 58.7989 75.057 58.2817L75.1839 58.0356L73.9396 57.3936L74.2082 56.8731L77.52 58.582L77.1245 59.3485ZM76.6514 59.1044L76.7784 58.8583L75.6571 58.2798L75.5301 58.5258C75.4862 58.6109 75.4773 58.6862 75.5034 58.7516C75.528 58.8202 75.597 58.8838 75.7105 58.9424L76.2073 59.1987C76.3209 59.2573 76.4127 59.2767 76.4828 59.257C76.5513 59.2404 76.6075 59.1895 76.6514 59.1044Z" fill="#B4B0AA"/>
<path opacity="0.3" d="M75.3902 60.7487L73.6621 59.7173C73.4518 59.5918 73.2948 59.6159 73.1912 59.7896C73.0875 59.9633 73.1408 60.1129 73.3511 60.2385L75.0791 61.2699C75.2894 61.3954 75.4464 61.3713 75.55 61.1976C75.6537 61.0239 75.6004 60.8743 75.3902 60.7487ZM73.9943 59.2335L75.6583 60.2268C75.9143 60.3796 76.0733 60.5634 76.1353 60.7781C76.1972 60.9928 76.1545 61.2236 76.0072 61.4705C75.8598 61.7173 75.677 61.8644 75.4586 61.9118C75.2401 61.9592 75.0029 61.9065 74.7469 61.7537L73.0829 60.7604C72.8269 60.6076 72.6679 60.4238 72.6059 60.2091C72.544 59.9944 72.5867 59.7636 72.734 59.5167C72.8814 59.2699 73.0642 59.1227 73.2827 59.0754C73.5011 59.028 73.7383 59.0807 73.9943 59.2335Z" fill="#B4B0AA"/>
<path opacity="0.3" d="M72.5802 62.42L72.2676 62.877L71.859 62.5975C71.61 62.4271 71.4602 62.2344 71.4096 62.0192C71.3619 61.8059 71.4182 61.5822 71.5785 61.3478C71.7388 61.1134 71.927 60.9798 72.143 60.947C72.3619 60.9161 72.5959 60.9858 72.8449 61.1562L74.4444 62.2503C74.6934 62.4206 74.8417 62.6124 74.8894 62.8256C74.94 63.0408 74.8851 63.2656 74.7248 63.5C74.5645 63.7343 74.3749 63.8669 74.156 63.8978C73.94 63.9307 73.7075 63.8619 73.4585 63.6916L73.1597 63.4872L73.4723 63.0302L73.8018 63.2556C74.004 63.3939 74.1622 63.3795 74.2764 63.2126C74.3906 63.0456 74.3466 62.893 74.1445 62.7547L72.4835 61.6185C72.2843 61.4822 72.1276 61.4976 72.0133 61.6646C71.8991 61.8315 71.9416 61.9832 72.1408 62.1194L72.5802 62.42Z" fill="#B4B0AA"/>
<path opacity="0.3" d="M71.0875 64.4452L70.7456 64.8808L70.3561 64.575C70.1188 64.3888 69.982 64.1866 69.9456 63.9685C69.912 63.7526 69.9829 63.533 70.1582 63.3097C70.3335 63.0863 70.53 62.9653 70.7477 62.9467C70.9682 62.9302 71.197 63.0151 71.4344 63.2014L72.9587 64.398C73.1961 64.5843 73.3315 64.7854 73.3651 65.0012C73.4015 65.2193 73.332 65.44 73.1567 65.6634C72.9814 65.8867 72.7835 66.0066 72.563 66.0231C72.3453 66.0417 72.1178 65.9579 71.8805 65.7716L71.5957 65.5481L71.9376 65.1125L72.2517 65.3591C72.4443 65.5103 72.6031 65.5063 72.728 65.3472C72.853 65.1881 72.8191 65.0329 72.6265 64.8817L71.0434 63.6391C70.8536 63.4901 70.6962 63.4951 70.5713 63.6543C70.4464 63.8134 70.4788 63.9675 70.6687 64.1165L71.0875 64.4452Z" fill="#B4B0AA"/>
<path opacity="0.3" d="M69.9192 66.3315L68.9799 64.8222L69.3833 64.3759L72.1479 66.875L71.7981 67.262L70.0485 65.6805L70.5139 66.3882L71.334 67.7755L70.902 68.2534L68.1373 65.7543L68.4908 65.3633L70.4379 67.1233L69.9192 66.3315Z" fill="#B4B0AA"/>
<path opacity="0.3" d="M67.7752 68.5476L66.961 66.9672L67.3992 66.555L69.9526 69.2695L69.5726 69.627L67.9567 67.9091L68.3633 68.6522L69.0685 70.1012L68.5992 70.5426L66.0458 67.828L66.4297 67.4669L68.2281 69.3787L67.7752 68.5476Z" fill="#B4B0AA"/>
</svg>
