<svg width="85" height="84" viewBox="0 0 85 84" fill="none" xmlns="http://www.w3.org/2000/svg">
<path d="M84.1204 42C84.1204 65.196 65.3163 84 42.1204 84C18.9244 84 0.120361 65.196 0.120361 42C0.120361 18.804 18.9244 0 42.1204 0C65.3163 0 84.1204 18.804 84.1204 42Z" fill="#EEECE8"/>
<path d="M25.3249 27.8107V30.6571H24.2852V24.0153H25.3249V26.8618H26.5063V24.0153H27.5649V30.6571H26.5063V27.8107H25.3249Z" fill="#B4B0AA"/>
<path d="M30.9084 24.0153L31.967 30.6571H30.9179L30.7383 29.4521H29.4624L29.2828 30.6571H28.3282L29.3867 24.0153H30.9084ZM30.0956 25.1919L29.5947 28.5507H30.5965L30.0956 25.1919Z" fill="#B4B0AA"/>
<path d="M36.7706 31.5491H35.7403V30.6571H33.5192V31.5491H32.5079V29.7273H32.9143C33.0655 29.5375 33.1506 29.2497 33.1695 28.8639L33.4058 24.0153H36.3169V29.7273H36.7706V31.5491ZM34.3793 24.9642L34.1903 28.8449C34.1651 29.2687 34.0674 29.5628 33.8973 29.7273H35.2583V24.9642H34.3793Z" fill="#B4B0AA"/>
<path d="M38.673 24.9642V26.8144H40.1002V27.7632H38.673V29.7083H40.4688V30.6571H37.6333V24.0153H40.4688V24.9642H38.673Z" fill="#B4B0AA"/>
<path d="M44.3927 24.0153V26.7005L45.6214 24.0153H46.6611L45.3851 26.71L46.6611 30.6571H45.5931L44.6479 27.7158L44.3927 28.2187V30.6571H43.3625V28.2187L43.1073 27.7063L42.1622 30.6571H41.0941L42.3795 26.7385L41.0941 24.0153H42.1338L43.3625 26.7005V24.0153H44.3927Z" fill="#B4B0AA"/>
<path d="M48.424 27.8107V30.6571H47.3843V24.0153H48.424V26.8618H49.6054V24.0153H50.664V30.6571H49.6054V27.8107H48.424Z" fill="#B4B0AA"/>
<path d="M53.2325 30.6571H51.7014V24.0153H52.741V26.5108H53.2325C54.2659 26.5108 54.7826 27.0579 54.7826 28.1522V29.0157C54.7826 30.11 54.2659 30.6571 53.2325 30.6571ZM52.741 29.7083H53.2325C53.4026 29.7083 53.5287 29.6609 53.6106 29.566C53.6988 29.4711 53.7429 29.3098 53.7429 29.0821V28.0858C53.7429 27.8581 53.6988 27.6968 53.6106 27.6019C53.5287 27.507 53.4026 27.4596 53.2325 27.4596H52.741V29.7083ZM56.4177 30.6571H55.378V24.0153H56.4177V30.6571Z" fill="#B4B0AA"/>
<path d="M58.5264 30.6571L59.3959 27.6114L59.8212 25.9794V30.6571H60.7569V24.0153H59.6133L58.7626 26.7575L58.3846 28.2187V24.0153H57.4583V30.6571H58.5264ZM59.5944 22.5352H60.2276C60.2276 22.8641 60.1331 23.1234 59.9441 23.3132C59.7551 23.4966 59.481 23.5884 59.1218 23.5884C58.7689 23.5884 58.5011 23.4966 58.3184 23.3132C58.142 23.1298 58.0475 22.8704 58.0349 22.5352H58.6776C58.6902 22.7059 58.7311 22.823 58.8004 22.8862C58.8698 22.9432 58.9769 22.9716 59.1218 22.9716C59.273 22.9716 59.3864 22.94 59.462 22.8767C59.5377 22.8135 59.5818 22.6996 59.5944 22.5352Z" fill="#B4B0AA"/>
<path d="M23.6933 37.2847V36.9147C23.6933 36.63 23.646 36.4339 23.5515 36.3264C23.4633 36.2126 23.3309 36.1556 23.1545 36.1556C22.7891 36.1556 22.6063 36.3739 22.6063 36.8103V37.3512H21.6517V36.8578C21.6517 36.3201 21.7809 35.9121 22.0392 35.6338C22.2976 35.3491 22.6788 35.2068 23.1829 35.2068C23.687 35.2068 24.0713 35.3523 24.336 35.6433C24.6006 35.9279 24.7329 36.3391 24.7329 36.8767V37.0475C24.7329 37.756 24.4903 38.2114 24.0052 38.4138C24.4903 38.6289 24.7329 39.0938 24.7329 39.8086V40.3305C24.7329 40.8682 24.6006 41.2825 24.336 41.5735C24.0713 41.8581 23.687 42.0004 23.1829 42.0004C22.6788 42.0004 22.2944 41.8581 22.0298 41.5735C21.7651 41.2825 21.6328 40.8682 21.6328 40.3305V39.5999H22.6158V40.3969C22.6158 40.8334 22.7954 41.0516 23.1545 41.0516C23.3309 41.0516 23.4633 40.9978 23.5515 40.8903C23.646 40.7764 23.6933 40.5803 23.6933 40.302V39.7802C23.6933 39.4765 23.6397 39.2615 23.5326 39.135C23.4255 39.0021 23.2522 38.9357 23.0127 38.9357H22.7575V37.9869H23.0694C23.2774 37.9869 23.4318 37.9331 23.5326 37.8256C23.6397 37.718 23.6933 37.5378 23.6933 37.2847Z" fill="#B4B0AA"/>
<path d="M28.0266 35.2827L29.0852 41.9245H28.0361L27.8565 40.7195H26.5806L26.401 41.9245H25.4464L26.5049 35.2827H28.0266ZM27.2138 36.4593L26.7129 39.8181H27.7147L27.2138 36.4593Z" fill="#B4B0AA"/>
<path d="M31.885 39.4481H32.868V40.3305C32.868 40.8682 32.7357 41.2825 32.471 41.5735C32.2064 41.8581 31.822 42.0004 31.3179 42.0004C30.8138 42.0004 30.4295 41.8581 30.1648 41.5735C29.9002 41.2825 29.7679 40.8682 29.7679 40.3305V36.8767C29.7679 36.3391 29.9002 35.9279 30.1648 35.6433C30.4295 35.3523 30.8138 35.2068 31.3179 35.2068C31.822 35.2068 32.2064 35.3523 32.471 35.6433C32.7357 35.9279 32.868 36.3391 32.868 36.8767V37.5219H31.885V36.8103C31.885 36.3739 31.7054 36.1556 31.3463 36.1556C30.9871 36.1556 30.8075 36.3739 30.8075 36.8103V40.3969C30.8075 40.827 30.9871 41.0421 31.3463 41.0421C31.7054 41.0421 31.885 40.827 31.885 40.3969V39.4481Z" fill="#B4B0AA"/>
<path d="M33.4799 36.2315V35.2827H36.6934V36.2315H35.6065V41.9245H34.5668V36.2315H33.4799Z" fill="#B4B0AA"/>
<path d="M38.966 35.2827C39.9994 35.2827 40.5161 35.8299 40.5161 36.9242V37.7876C40.5161 38.8819 39.9994 39.4291 38.966 39.4291H38.4745V41.9245H37.4349V35.2827H38.966ZM38.966 36.2315H38.4745V38.4803H38.966C39.1361 38.4803 39.2622 38.4328 39.3441 38.3379C39.4323 38.2431 39.4764 38.0818 39.4764 37.854V36.8578C39.4764 36.63 39.4323 36.4687 39.3441 36.3739C39.2622 36.279 39.1361 36.2315 38.966 36.2315Z" fill="#B4B0AA"/>
<path d="M42.2358 36.8103V40.3969C42.2358 40.8334 42.4154 41.0516 42.7745 41.0516C43.1337 41.0516 43.3133 40.8334 43.3133 40.3969V36.8103C43.3133 36.3739 43.1337 36.1556 42.7745 36.1556C42.4154 36.1556 42.2358 36.3739 42.2358 36.8103ZM41.1961 40.3305V36.8767C41.1961 36.3454 41.3316 35.9342 41.6026 35.6433C41.8735 35.3523 42.2642 35.2068 42.7745 35.2068C43.2849 35.2068 43.6756 35.3523 43.9465 35.6433C44.2175 35.9342 44.353 36.3454 44.353 36.8767V40.3305C44.353 40.8618 44.2175 41.273 43.9465 41.564C43.6756 41.8549 43.2849 42.0004 42.7745 42.0004C42.2642 42.0004 41.8735 41.8549 41.6026 41.564C41.3316 41.273 41.1961 40.8618 41.1961 40.3305Z" fill="#B4B0AA"/>
<path d="M46.3802 41.9245L47.2497 38.8788L47.675 37.2468V41.9245H48.6107V35.2827H47.4671L46.6165 38.0248L46.2384 39.486V35.2827H45.3121V41.9245H46.3802ZM47.4482 33.8025H48.0815C48.0815 34.1315 47.9869 34.3908 47.7979 34.5806C47.6089 34.764 47.3348 34.8557 46.9756 34.8557C46.6228 34.8557 46.355 34.764 46.1722 34.5806C45.9958 34.3971 45.9013 34.1378 45.8887 33.8025H46.5314C46.544 33.9733 46.585 34.0903 46.6543 34.1536C46.7236 34.2105 46.8307 34.239 46.9756 34.239C47.1268 34.239 47.2403 34.2074 47.3159 34.1441C47.3915 34.0808 47.4356 33.967 47.4482 33.8025Z" fill="#B4B0AA"/>
<path d="M54.5625 35.2827V40.9947H55.0256V42.8164H54.0143V41.9245H49.6477V35.2827H50.6874V40.9757H51.5853V35.2827H52.6249V40.9757H53.5228V35.2827H54.5625Z" fill="#B4B0AA"/>
<path d="M57.8129 38.8788L56.9434 41.9245H55.8754V35.2827H56.8016V39.486L57.1797 38.0248L58.0303 35.2827H59.174V41.9245H58.2383V37.2468L57.8129 38.8788Z" fill="#B4B0AA"/>
<path d="M62.5648 41.9245L61.5535 39.2773L61.2321 39.8845V41.9245H60.1924V35.2827H61.2321V38.1766L62.5931 35.2827H63.6328L62.1867 38.2431L63.6328 41.9245H62.5648Z" fill="#B4B0AA"/>
<path d="M32.3855 46.5501C33.4189 46.5501 33.9356 47.0972 33.9356 48.1915V49.055C33.9356 50.1493 33.4189 50.6965 32.3855 50.6965H31.8941V53.1919H30.8544V46.5501H32.3855ZM32.3855 47.4989H31.8941V49.7476H32.3855C32.5557 49.7476 32.6817 49.7002 32.7636 49.6053C32.8518 49.5104 32.8959 49.3491 32.8959 49.1214V48.1251C32.8959 47.8974 32.8518 47.7361 32.7636 47.6412C32.6817 47.5463 32.5557 47.4989 32.3855 47.4989Z" fill="#B4B0AA"/>
<path d="M35.6553 48.0777V51.6643C35.6553 52.1007 35.8349 52.319 36.1941 52.319C36.5532 52.319 36.7328 52.1007 36.7328 51.6643V48.0777C36.7328 47.6412 36.5532 47.423 36.1941 47.423C35.8349 47.423 35.6553 47.6412 35.6553 48.0777ZM34.6157 51.5979V48.1441C34.6157 47.6128 34.7511 47.2016 35.0221 46.9106C35.293 46.6196 35.6837 46.4742 36.1941 46.4742C36.7045 46.4742 37.0951 46.6196 37.3661 46.9106C37.637 47.2016 37.7725 47.6128 37.7725 48.1441V51.5979C37.7725 52.1292 37.637 52.5404 37.3661 52.8313C37.0951 53.1223 36.7045 53.2678 36.1941 53.2678C35.6837 53.2678 35.293 53.1223 35.0221 52.8313C34.7511 52.5404 34.6157 52.1292 34.6157 51.5979Z" fill="#B4B0AA"/>
<path d="M40.7638 50.7154H41.7467V51.5979C41.7467 52.1355 41.6144 52.5498 41.3498 52.8408C41.0851 53.1255 40.7008 53.2678 40.1967 53.2678C39.6926 53.2678 39.3082 53.1255 39.0436 52.8408C38.7789 52.5498 38.6466 52.1355 38.6466 51.5979V48.1441C38.6466 47.6064 38.7789 47.1953 39.0436 46.9106C39.3082 46.6196 39.6926 46.4742 40.1967 46.4742C40.7008 46.4742 41.0851 46.6196 41.3498 46.9106C41.6144 47.1953 41.7467 47.6064 41.7467 48.1441V48.7893H40.7638V48.0777C40.7638 47.6412 40.5842 47.423 40.225 47.423C39.8659 47.423 39.6863 47.6412 39.6863 48.0777V51.6643C39.6863 52.0944 39.8659 52.3095 40.225 52.3095C40.5842 52.3095 40.7638 52.0944 40.7638 51.6643V50.7154Z" fill="#B4B0AA"/>
<path d="M44.6932 50.7154H45.6761V51.5979C45.6761 52.1355 45.5438 52.5498 45.2792 52.8408C45.0145 53.1255 44.6302 53.2678 44.1261 53.2678C43.622 53.2678 43.2376 53.1255 42.973 52.8408C42.7083 52.5498 42.576 52.1355 42.576 51.5979V48.1441C42.576 47.6064 42.7083 47.1953 42.973 46.9106C43.2376 46.6196 43.622 46.4742 44.1261 46.4742C44.6302 46.4742 45.0145 46.6196 45.2792 46.9106C45.5438 47.1953 45.6761 47.6064 45.6761 48.1441V48.7893H44.6932V48.0777C44.6932 47.6412 44.5136 47.423 44.1544 47.423C43.7953 47.423 43.6157 47.6412 43.6157 48.0777V51.6643C43.6157 52.0944 43.7953 52.3095 44.1544 52.3095C44.5136 52.3095 44.6932 52.0944 44.6932 51.6643V50.7154Z" fill="#B4B0AA"/>
<path d="M48.5281 50.1461L47.6585 53.1919H46.5905V46.5501H47.5168V50.7534L47.8948 49.2922L48.7455 46.5501H49.8891V53.1919H48.9534V48.5141L48.5281 50.1461Z" fill="#B4B0AA"/>
<path d="M52.8452 50.1461L51.9756 53.1919H50.9076V46.5501H51.8338V50.7534L52.2119 49.2922L53.0625 46.5501H54.2062V53.1919H53.2705V48.5141L52.8452 50.1461Z" fill="#B4B0AA"/>
<path d="M37.0381 59.4494C37.0381 59.1648 36.9908 58.9687 36.8963 58.8611C36.8081 58.7473 36.6758 58.6904 36.4993 58.6904C36.1402 58.6904 35.9606 58.9086 35.9606 59.3451V60.0567H34.9776V59.4115C34.9776 58.8738 35.11 58.4626 35.3746 58.178C35.6392 57.887 36.0236 57.7415 36.5277 57.7415C37.0318 57.7415 37.4161 57.887 37.6808 58.178C37.9454 58.4626 38.0778 58.8738 38.0778 59.4115C38.0778 59.7973 38.0053 60.1642 37.8604 60.5121C37.7217 60.86 37.5485 61.1573 37.3405 61.404C37.1389 61.6507 36.9373 61.8816 36.7356 62.0967C36.534 62.3117 36.3607 62.53 36.2158 62.7514C36.0772 62.9664 36.0079 63.172 36.0079 63.3681C36.0079 63.4314 36.011 63.4788 36.0173 63.5104H37.9832V64.4592H34.9776V63.6433C34.9776 63.2827 35.047 62.9538 35.1856 62.6565C35.3305 62.3528 35.5038 62.0903 35.7054 61.8689C35.907 61.6412 36.1087 61.4198 36.3103 61.2048C36.5119 60.9834 36.6821 60.724 36.8207 60.4267C36.9656 60.1294 37.0381 59.8037 37.0381 59.4494Z" fill="#B4B0AA"/>
<path d="M39.9632 59.3451V62.9316C39.9632 63.3681 40.1428 63.5863 40.5019 63.5863C40.8611 63.5863 41.0407 63.3681 41.0407 62.9316V59.3451C41.0407 58.9086 40.8611 58.6904 40.5019 58.6904C40.1428 58.6904 39.9632 58.9086 39.9632 59.3451ZM38.9235 62.8652V59.4115C38.9235 58.8801 39.059 58.469 39.3299 58.178C39.6009 57.887 39.9915 57.7415 40.5019 57.7415C41.0123 57.7415 41.403 57.887 41.6739 58.178C41.9449 58.469 42.0803 58.8801 42.0803 59.4115V62.8652C42.0803 63.3966 41.9449 63.8077 41.6739 64.0987C41.403 64.3897 41.0123 64.5352 40.5019 64.5352C39.9915 64.5352 39.6009 64.3897 39.3299 64.0987C39.059 63.8077 38.9235 63.3966 38.9235 62.8652Z" fill="#B4B0AA"/>
<path d="M43.1656 59.3925V58.6524C43.5248 58.6524 43.78 58.5828 43.9312 58.4437C44.0824 58.3045 44.2084 58.0958 44.3092 57.8174H45.0087V64.4592H43.969V59.3925H43.1656Z" fill="#B4B0AA"/>
<path d="M49.7178 59.4221V62.7994C49.7178 63.944 49.1895 64.5164 48.1329 64.5164C47.6298 64.5164 47.2461 64.3748 46.982 64.0918C46.7178 63.8025 46.5858 63.3906 46.5858 62.856V62.6862H47.5669V62.922C47.5669 63.356 47.7461 63.573 48.1046 63.573C48.2996 63.573 48.4442 63.5132 48.5386 63.3937C48.6329 63.2742 48.6801 63.0635 48.6801 62.7617V61.5541C48.4977 61.9441 48.1769 62.139 47.7178 62.139C46.9505 62.139 46.5669 61.6359 46.5669 60.6296V59.4221C46.5669 58.8938 46.7021 58.485 46.9726 58.1957C47.243 57.9064 47.6329 57.7617 48.1423 57.7617C48.6518 57.7617 49.0417 57.9064 49.3121 58.1957C49.5826 58.485 49.7178 58.8938 49.7178 59.4221ZM47.6046 60.5447C47.6046 60.9787 47.7839 61.1956 48.1423 61.1956C48.5008 61.1956 48.6801 60.9787 48.6801 60.5447V59.356C48.6801 58.9284 48.5008 58.7145 48.1423 58.7145C47.7839 58.7145 47.6046 58.9284 47.6046 59.356V60.5447Z" fill="#B4B0AA"/>
<path opacity="0.3" d="M6.64645 49.4827L6.23559 49.5726L6.28226 49.7858C6.40673 50.3544 6.16905 50.7044 5.56922 50.8357L4.57587 51.0531C3.97604 51.1844 3.61389 50.9658 3.48943 50.3971L3.44275 50.1839L3.00588 50.2795L2.88294 49.7178L3.3198 49.6222L3.27313 49.409C3.14866 48.8404 3.38634 48.4904 3.98617 48.3591L4.97953 48.1417C5.57935 48.0104 5.9415 48.229 6.06596 48.7977L6.11264 49.0109L6.5235 48.921L6.64645 49.4827ZM3.77761 49.2986L3.82428 49.5118L5.61336 49.1202L5.56669 48.907C5.52495 48.7163 5.38272 48.6475 5.14002 48.7006L4.07385 48.934C3.83461 48.9863 3.73587 49.1079 3.77761 49.2986ZM5.73631 49.6819L3.94723 50.0735L3.99391 50.2867C4.03565 50.4774 4.17614 50.5466 4.41537 50.4942L5.48154 50.2608C5.72424 50.2077 5.82473 50.0858 5.78298 49.8951L5.73631 49.6819Z" fill="#B4B0AA"/>
<path opacity="0.3" d="M2.9362 47.0594L3.96443 46.9161L3.85346 46.1198L4.38076 46.0464L4.49173 46.8426L5.57269 46.6919L5.43306 45.69L5.96035 45.6166L6.18083 47.1984L2.48975 47.7129L2.26927 46.131L2.79657 46.0575L2.9362 47.0594Z" fill="#B4B0AA"/>
<path opacity="0.3" d="M6.21552 42.6196L6.25361 43.1986L5.75424 43.2315L5.83636 44.4799L6.33573 44.4471L6.37312 45.0155L5.35313 45.0826L5.33811 44.8542C5.22627 44.7762 5.06198 44.7389 4.84524 44.7425L2.12183 44.7883L2.0142 43.152L5.2123 42.9417L5.19553 42.6867L6.21552 42.6196ZM2.61708 44.2062L4.79687 44.1695C5.03509 44.168 5.20339 44.2121 5.30176 44.3017L5.25144 43.5367L2.58459 43.7121L2.61708 44.2062Z" fill="#B4B0AA"/>
<path opacity="0.3" d="M2.50868 41.4531L3.54682 41.4599L3.55215 40.6561L4.08454 40.6596L4.07921 41.4635L5.17059 41.4707L5.1773 40.4592L5.70968 40.4627L5.69909 42.0599L1.97241 42.0352L1.983 40.438L2.51539 40.4415L2.50868 41.4531Z" fill="#B4B0AA"/>
<path opacity="0.3" d="M2.07083 38.6534C2.11204 38.0727 2.43889 37.8042 3.05138 37.8476L3.53464 37.8819C4.14713 37.9254 4.43276 38.2375 4.39155 38.8181L4.37195 39.0942L5.76864 39.1934L5.72717 39.7775L2.00977 39.5137L2.07083 38.6534ZM2.60189 38.6911L2.58229 38.9672L3.84089 39.0565L3.8605 38.7804C3.86728 38.6848 3.84575 38.6121 3.79591 38.5623C3.74633 38.509 3.6578 38.4778 3.53035 38.4687L2.97274 38.4292C2.84529 38.4201 2.75325 38.4385 2.69662 38.4843C2.64025 38.5265 2.60867 38.5955 2.60189 38.6911Z" fill="#B4B0AA"/>
<path opacity="0.3" d="M2.3806 35.7296L6.15367 35.6389L6.07437 36.2245L5.39077 36.234L5.29431 36.9462L5.95076 37.1372L5.87859 37.6701L2.26557 36.579L2.3806 35.7296ZM2.97335 36.2719L4.80311 36.8045L4.87885 36.2453L2.97335 36.2719Z" fill="#B4B0AA"/>
<path opacity="0.3" d="M6.1725 35.4581L5.65129 35.3496C5.68023 35.2106 5.67856 35.1142 5.64627 35.0603C5.61123 35.0023 5.51241 34.9545 5.34982 34.917L2.61214 34.249L2.9497 32.628L6.59819 33.3878L6.47663 33.9716L3.34935 33.3203L3.24515 33.8207L5.43686 34.3424C5.76826 34.4223 5.99181 34.5413 6.1075 34.6996C6.2232 34.8578 6.25101 35.0811 6.19095 35.3695L6.1725 35.4581Z" fill="#B4B0AA"/>
<path opacity="0.3" d="M7.03642 31.6954L6.80183 32.5254L3.21558 31.5117L3.37487 30.9482L4.72227 31.329L4.79757 31.0626C4.9559 30.5025 5.3305 30.3059 5.92138 30.4729L6.38759 30.6047C6.97847 30.7717 7.19475 31.1353 7.03642 31.6954ZM6.4488 31.817L6.5241 31.5506C6.55017 31.4584 6.54386 31.3828 6.50518 31.324C6.46746 31.2617 6.38712 31.2131 6.26416 31.1784L5.72623 31.0263C5.60327 30.9916 5.50942 30.9909 5.44467 31.0242C5.38089 31.0541 5.33596 31.1152 5.3099 31.2074L5.2346 31.4738L6.4488 31.817Z" fill="#B4B0AA"/>
<path opacity="0.3" d="M6.13069 29.2205L7.63169 29.7664L7.43152 30.3167L3.9292 29.043L4.12936 28.4926L5.63036 29.0385L5.85782 28.4131L4.35682 27.8672L4.56062 27.3068L8.06295 28.5806L7.85914 29.141L6.35815 28.5951L6.13069 29.2205Z" fill="#B4B0AA"/>
<path opacity="0.3" d="M8.77088 26.8657L8.40637 27.6473L5.02881 26.0723L5.27632 25.5415L6.54532 26.1333L6.66232 25.8824C6.90833 25.3548 7.30958 25.2208 7.86608 25.4803L8.30516 25.6851C8.86165 25.9446 9.01689 26.3381 8.77088 26.8657ZM8.17137 26.8916L8.28838 26.6407C8.32888 26.5538 8.33475 26.4782 8.306 26.4139C8.27875 26.3464 8.20723 26.2856 8.09142 26.2316L7.58479 25.9953C7.46899 25.9413 7.37646 25.9256 7.30721 25.9481C7.23946 25.9675 7.18533 26.0205 7.14483 26.1074L7.02783 26.3583L8.17137 26.8916ZM9.52917 25.2396L9.28166 25.7704L5.9041 24.1953L6.15161 23.6645L9.52917 25.2396Z" fill="#B4B0AA"/>
<path opacity="0.3" d="M10.1794 24.0311L8.9443 22.7524L8.27105 22.0871L10.5441 23.3994L10.8076 22.943L7.58018 21.0796L7.25808 21.6375L8.35099 22.8217L8.95455 23.4161L6.91202 22.2369L6.65115 22.6887L9.87862 24.5521L10.1794 24.0311ZM6.53349 21.2314L6.71184 20.9225C6.87168 21.0148 6.97108 21.1337 7.01006 21.2791C7.04596 21.4228 7.01333 21.5822 6.91218 21.7574C6.8128 21.9296 6.6928 22.0345 6.5522 22.0721C6.41337 22.1067 6.26072 22.0801 6.09427 21.9922L6.27528 21.6787C6.36182 21.7204 6.43022 21.7333 6.48048 21.7172C6.52766 21.6994 6.57167 21.6551 6.61248 21.5844C6.65507 21.5106 6.67165 21.4464 6.66221 21.3918C6.65276 21.3372 6.60986 21.2837 6.53349 21.2314Z" fill="#B4B0AA"/>
<path opacity="0.3" d="M11.3345 19.2642L12.6086 20.2273L12.2554 20.6945L9.28247 18.4473L9.63561 17.9801L10.9097 18.9432L11.311 18.4123L10.0369 17.4492L10.3965 16.9735L13.3694 19.2208L13.0099 19.6965L11.7357 18.7333L11.3345 19.2642Z" fill="#B4B0AA"/>
<path opacity="0.3" d="M11.9905 15.8778L12.7708 16.5626L13.3011 15.9584L13.7012 16.3096L13.171 16.9138L13.9912 17.6338L14.6585 16.8735L15.0586 17.2247L14.0051 18.4251L11.2041 15.9668L12.2577 14.7664L12.6578 15.1176L11.9905 15.8778Z" fill="#B4B0AA"/>
<path opacity="0.3" d="M16.4544 15.7786L14.9996 15.1349L15.1135 15.5035L15.925 16.3108L15.512 16.726L12.8699 14.0977L13.2829 13.6825L14.4341 14.8277L13.8236 13.1389L14.2366 12.7238L14.8397 14.4727L16.8787 15.3521L16.4544 15.7786Z" fill="#B4B0AA"/>
<path opacity="0.3" d="M15.6249 12.6247L16.9597 14.1308C17.1222 14.3141 17.2791 14.3386 17.4305 14.2044C17.5819 14.0702 17.5764 13.9115 17.4139 13.7282L16.0791 12.2222C15.9167 12.0389 15.7597 12.0144 15.6083 12.1485C15.4569 12.2827 15.4625 12.4415 15.6249 12.6247ZM16.4967 14.4913L15.2114 13.0411C15.0136 12.818 14.9177 12.5947 14.9236 12.3713C14.9295 12.1479 15.0401 11.9408 15.2552 11.7501C15.4704 11.5594 15.6892 11.4746 15.9117 11.4955C16.1342 11.5165 16.3443 11.6385 16.5421 11.8616L17.8275 13.3119C18.0252 13.535 18.1212 13.7583 18.1152 13.9817C18.1093 14.2051 17.9988 14.4122 17.7836 14.6028C17.5685 14.7935 17.3496 14.8784 17.1271 14.8575C16.9046 14.8365 16.6945 14.7145 16.4967 14.4913Z" fill="#B4B0AA"/>
<path opacity="0.3" d="M17.2223 10.1599L19.1545 12.0184L17.8869 9.66171L18.5387 9.17313L20.774 12.1551L20.3309 12.4872L18.7279 10.3487L20.0072 12.7299L19.5641 13.062L17.6341 11.2152L19.2148 13.3238L18.8059 13.6304L16.5706 10.6484L17.2223 10.1599Z" fill="#B4B0AA"/>
<path opacity="0.3" d="M20.2946 7.99474L22.0436 10.0266L21.0031 7.56122L21.6978 7.13603L23.6431 10.3148L23.1709 10.6038L21.7758 8.32418L22.8257 10.815L22.3535 11.104L20.6055 9.08407L21.9811 11.3319L21.5451 11.5987L19.5999 8.41992L20.2946 7.99474Z" fill="#B4B0AA"/>
<path opacity="0.3" d="M23.5781 6.72945L24.0476 7.65535L24.7646 7.29172L25.0054 7.76654L24.2885 8.13017L24.7821 9.10355L25.6843 8.646L25.9251 9.12082L24.5006 9.84326L22.8149 6.51953L24.2394 5.79709L24.4802 6.27191L23.5781 6.72945Z" fill="#B4B0AA"/>
<path opacity="0.3" d="M25.8608 5.0611C26.396 4.83212 26.7843 4.99988 27.0259 5.5644L27.2165 6.00982C27.458 6.57434 27.3112 6.97109 26.7761 7.20008L26.5215 7.30899L27.0724 8.59629L26.5339 8.82667L25.0679 5.40039L25.8608 5.0611ZM26.0702 5.55057L25.8157 5.65948L26.3121 6.81952L26.5666 6.71061C26.6547 6.67291 26.7095 6.62051 26.731 6.55342C26.7557 6.48492 26.743 6.39194 26.6927 6.27447L26.4728 5.76052C26.4225 5.64305 26.3641 5.56961 26.2975 5.54022C26.2341 5.50942 26.1584 5.51287 26.0702 5.55057Z" fill="#B4B0AA"/>
<path opacity="0.3" d="M28.5179 4.03306L29.0709 3.84047L30.2965 7.35995L29.7434 7.55254L29.2497 6.13469C29.1746 6.30744 29.0398 6.42766 28.8454 6.49535C28.6242 6.57239 28.4281 6.55985 28.2573 6.45774C28.0886 6.35111 27.9611 6.17378 27.8747 5.92574L27.3564 4.4375L27.9095 4.24491L28.412 5.6879C28.4517 5.80186 28.5122 5.8785 28.5935 5.91783C28.6737 5.9538 28.7607 5.95545 28.8546 5.92276C28.9451 5.89125 29.005 5.83657 29.0342 5.75873C29.0623 5.67753 29.056 5.57828 29.0151 5.46096L28.5179 4.03306Z" fill="#B4B0AA"/>
<path opacity="0.3" d="M31.206 3.75407L31.4708 4.75789L32.2481 4.55282L32.3839 5.0676L31.6066 5.27267L31.885 6.32797L32.8631 6.06994L32.9989 6.58472L31.4546 6.99214L30.5039 3.38867L32.0483 2.98125L32.1841 3.49603L31.206 3.75407Z" fill="#B4B0AA"/>
<path opacity="0.3" d="M34.5091 4.83797L35.0522 4.73002L35.1487 5.21565C35.2075 5.51155 35.1798 5.7541 35.0654 5.9433C34.9503 6.12901 34.7535 6.24955 34.475 6.30491C34.1965 6.36026 33.9686 6.32415 33.7913 6.19655C33.6132 6.06548 33.4948 5.85199 33.436 5.55609L33.0582 3.65536C32.9993 3.35946 33.0275 3.11865 33.1425 2.93294C33.2569 2.74374 33.4534 2.62146 33.7319 2.56611C34.0104 2.51075 34.2386 2.54861 34.4167 2.67968C34.594 2.80727 34.7121 3.01902 34.7709 3.31492L34.8415 3.67L34.2984 3.77795L34.2206 3.38631C34.1728 3.14611 34.0497 3.04573 33.8513 3.08517C33.6529 3.12461 33.5776 3.26443 33.6253 3.50464L34.0176 5.47847C34.0647 5.71519 34.1874 5.81383 34.3859 5.77439C34.5843 5.73495 34.66 5.59687 34.6129 5.36015L34.5091 4.83797Z" fill="#B4B0AA"/>
<path opacity="0.3" d="M37.2149 5.81639L36.451 4.42092L36.3173 4.78287L36.471 5.91715L35.8906 5.99577L35.3904 2.30273L35.9707 2.22412L36.1887 3.83323L36.7304 2.12121L37.3108 2.0426L36.7265 3.79798L37.811 5.73563L37.2149 5.81639Z" fill="#B4B0AA"/>
<path opacity="0.3" d="M39.1145 3.92691L38.7313 5.66291L38.1308 5.7001L37.9004 1.98047L38.4211 1.94821L38.567 4.30221L38.7288 3.47072L39.1119 1.90542L39.7549 1.86559L39.9853 5.58522L39.4592 5.61781L39.297 2.99813L39.1145 3.92691Z" fill="#B4B0AA"/>
<path opacity="0.3" d="M41.5673 5.55176L42.0878 3.85187L42.3438 2.94061L42.2966 5.56489L42.8236 5.57437L42.8907 1.84822L42.2466 1.83662L41.7398 3.36637L41.5121 4.18229L41.5546 1.82417L41.0329 1.81478L40.9658 5.54093L41.5673 5.55176ZM42.2509 1.00603L42.6075 1.01245C42.6042 1.19698 42.5483 1.34152 42.44 1.44607C42.3317 1.54707 42.1764 1.59574 41.9741 1.5921C41.7753 1.58852 41.6255 1.53435 41.5244 1.42959C41.4269 1.32489 41.3763 1.17843 41.3726 0.99022L41.7345 0.996736C41.7399 1.09268 41.7618 1.15875 41.8002 1.19494C41.8386 1.22758 41.8987 1.24463 41.9803 1.2461C42.0655 1.24763 42.1297 1.23104 42.1729 1.19632C42.2161 1.1616 42.2421 1.09817 42.2509 1.00603Z" fill="#B4B0AA"/>
<path opacity="0.3" d="M46.5445 2.6841L46.0804 5.84457L45.501 5.75948L46.0425 2.07227L47.8703 2.34069L47.3288 6.0279L46.7389 5.94126L47.203 2.78079L46.5445 2.6841Z" fill="#B4B0AA"/>
<path opacity="0.3" d="M49.9532 2.74575C50.5217 2.87074 50.74 3.23309 50.6082 3.8328L50.5041 4.30597C50.3723 4.90568 50.0221 5.14303 49.4536 5.01804L49.1832 4.95859L48.8825 6.32613L48.3106 6.20037L49.1108 2.56055L49.9532 2.74575ZM49.8389 3.26573L49.5685 3.20628L49.2975 4.43862L49.5679 4.49807C49.6615 4.51864 49.7366 4.50789 49.7931 4.4658C49.853 4.42447 49.8967 4.34141 49.9242 4.21662L50.0442 3.67064C50.0716 3.54585 50.0668 3.45212 50.0297 3.38945C49.9961 3.32755 49.9325 3.2863 49.8389 3.26573Z" fill="#B4B0AA"/>
<path opacity="0.3" d="M51.8525 4.0997L51.2909 6.0322C51.2226 6.26737 51.2856 6.41318 51.4798 6.46964C51.6741 6.5261 51.8054 6.43674 51.8737 6.20157L52.4354 4.26907C52.5037 4.0339 52.4407 3.88808 52.2465 3.83163C52.0522 3.77517 51.9209 3.86453 51.8525 4.0997ZM50.739 5.83298L51.2798 3.97205C51.363 3.68576 51.5006 3.48551 51.6928 3.37132C51.8849 3.25713 52.119 3.24015 52.395 3.32038C52.6711 3.40061 52.8596 3.54041 52.9606 3.73979C53.0616 3.93916 53.0705 4.18199 52.9873 4.46829L52.4465 6.32921C52.3633 6.61551 52.2257 6.81575 52.0335 6.92994C51.8414 7.04413 51.6073 7.06111 51.3313 6.98089C51.0552 6.90066 50.8666 6.76085 50.7657 6.56148C50.6647 6.36211 50.6558 6.11928 50.739 5.83298Z" fill="#B4B0AA"/>
<path opacity="0.3" d="M54.3412 4.54094L53.9899 5.51788L54.7464 5.78988L54.5663 6.29088L53.8098 6.01887L53.4405 7.04591L54.3924 7.38817L54.2123 7.88916L52.7093 7.34876L53.9702 3.8418L55.4732 4.3822L55.2931 4.8832L54.3412 4.54094Z" fill="#B4B0AA"/>
<path opacity="0.3" d="M56.0603 8.65439L56.1256 7.06485L55.8244 7.30603L55.3711 8.35708L54.8333 8.12513L56.3093 4.70312L56.8471 4.93507L56.2039 6.42609L57.551 5.23871L58.0888 5.47065L56.6829 6.67328L56.6128 8.89266L56.0603 8.65439Z" fill="#B4B0AA"/>
<path opacity="0.3" d="M58.2317 6.12245L58.4741 5.64844L60.0857 6.47262L59.8433 6.94663L59.2982 6.66786L57.8438 9.5119L57.3224 9.24526L58.7768 6.40121L58.2317 6.12245Z" fill="#B4B0AA"/>
<path opacity="0.3" d="M61.7663 9.93005L60.879 11.2581L60.392 10.9327L62.4624 7.83398L62.9493 8.15933L62.062 9.48737L62.6154 9.85708L63.5027 8.52904L63.9985 8.8603L61.9281 11.9591L61.4323 11.6278L62.3196 10.2998L61.7663 9.93005Z" fill="#B4B0AA"/>
<path opacity="0.3" d="M66.0801 10.4069L64.2601 13.7133L63.794 13.3501L64.1297 12.7545L63.5627 12.3128L63.0674 12.784L62.6432 12.4535L65.404 9.88013L66.0801 10.4069ZM65.3132 10.6463L63.9324 11.9596L64.3775 12.3065L65.3132 10.6463Z" fill="#B4B0AA"/>
<path opacity="0.3" d="M65.8831 15.8124L65.4512 15.4248L65.7854 15.0523L64.8542 14.2167L64.52 14.5892L64.096 14.2088L64.7787 13.4479L64.9491 13.6008C65.0836 13.5785 65.2271 13.4903 65.3796 13.3363L67.2956 11.4003L68.5161 12.4954L66.3756 14.8809L66.5658 15.0515L65.8831 15.8124ZM67.3482 12.1628L65.8147 13.7123C65.6453 13.8798 65.4941 13.9659 65.3612 13.9706L65.9318 14.4826L67.7167 12.4934L67.3482 12.1628Z" fill="#B4B0AA"/>
<path opacity="0.3" d="M69.3635 14.0744L68.6153 14.794L69.1725 15.3734L68.7888 15.7425L68.2315 15.163L67.4449 15.9196L68.1461 16.6487L67.7623 17.0177L66.6552 15.8665L69.3413 13.2832L70.4484 14.4344L70.0647 14.8034L69.3635 14.0744Z" fill="#B4B0AA"/>
<path opacity="0.3" d="M72.1499 16.3924L70.986 17.3491L72.5894 16.927L72.9613 17.3794L71.3369 17.7844L70.0824 19.746L69.7004 19.2813L70.6372 17.8219L70.328 17.8901L69.271 18.759L68.9025 18.3107L69.9595 17.4418L70.0903 17.1482L68.4731 17.7884L68.0911 17.3236L70.2494 16.4867L70.97 14.957L71.3419 15.4094L70.6175 16.9009L71.7814 15.9441L72.1499 16.3924Z" fill="#B4B0AA"/>
<path opacity="0.3" d="M71.9668 19.6554L70.6504 20.5599L70.3187 20.0772L73.3904 17.9668L73.722 18.4495L72.4056 19.3539L72.7824 19.9024L74.0989 18.998L74.4365 19.4895L71.3649 21.5998L71.0272 21.1084L72.3436 20.2039L71.9668 19.6554Z" fill="#B4B0AA"/>
<path opacity="0.3" d="M72.3734 23.2123L71.9514 22.4601L75.2017 20.6367L75.4882 21.1475L74.267 21.8325L74.4025 22.074C74.6873 22.5816 74.5619 22.9857 74.0264 23.2861L73.6039 23.5231C73.0684 23.8236 72.6582 23.72 72.3734 23.2123ZM72.7023 22.7104L72.8377 22.9518C72.8846 23.0354 72.9426 23.0843 73.0116 23.0985C73.0823 23.1158 73.1734 23.0931 73.2848 23.0306L73.7724 22.7571C73.8838 22.6946 73.9506 22.6287 73.9727 22.5593C73.9966 22.493 73.9851 22.4181 73.9382 22.3345L73.8027 22.093L72.7023 22.7104ZM73.2512 24.7771L72.9647 24.2663L76.2149 22.4429L76.5015 22.9537L73.2512 24.7771Z" fill="#B4B0AA"/>
<path opacity="0.3" d="M76.7474 24.6725L75.8042 25.1064L76.1402 25.8367L75.6565 26.0592L75.3206 25.3289L74.329 25.785L74.7518 26.704L74.2681 26.9264L73.6006 25.4754L76.9863 23.918L77.6538 25.369L77.1701 25.5915L76.7474 24.6725Z" fill="#B4B0AA"/>
<path opacity="0.3" d="M76.8678 29.2032L75.3477 29.6934L75.168 29.136L78.7148 27.9922L78.8946 28.5496L77.3745 29.0398L77.5788 29.6731L79.0989 29.1829L79.2819 29.7504L75.735 30.8943L75.552 30.3268L77.0721 29.8366L76.8678 29.2032Z" fill="#B4B0AA"/>
<path opacity="0.3" d="M78.9683 31.811L77.0129 32.2867C76.7749 32.3446 76.6798 32.4718 76.7277 32.6684C76.7755 32.865 76.9184 32.9343 77.1563 32.8765L79.1118 32.4007C79.3497 32.3429 79.4448 32.2156 79.397 32.019C79.3491 31.8225 79.2062 31.7531 78.9683 31.811ZM76.9106 31.7089L78.7936 31.2508C79.0833 31.1803 79.3255 31.1999 79.5203 31.3096C79.715 31.4193 79.8463 31.6139 79.9143 31.8932C79.9822 32.1725 79.9549 32.4057 79.8324 32.5925C79.7098 32.7794 79.5037 32.9081 79.214 32.9786L77.331 33.4367C77.0413 33.5072 76.7991 33.4875 76.6044 33.3778C76.4096 33.2681 76.2783 33.0736 76.2104 32.7943C76.1424 32.5149 76.1697 32.2818 76.2923 32.0949C76.4148 31.908 76.621 31.7794 76.9106 31.7089Z" fill="#B4B0AA"/>
<path opacity="0.3" d="M80.3943 34.3504C80.4474 34.6474 80.4163 34.8765 80.3009 35.0378C80.189 35.1984 79.9898 35.3043 79.7033 35.3556L79.5723 35.379C79.195 35.4465 78.9265 35.3665 78.7668 35.1391C78.7062 35.4455 78.4698 35.6356 78.0575 35.7094L77.7588 35.7628C77.4758 35.8134 77.2458 35.777 77.0687 35.6536C76.8957 35.5331 76.7836 35.3296 76.7323 35.0431L76.5702 34.1365L80.2388 33.4805L80.3943 34.3504ZM78.3701 34.6746L78.3241 34.4178L77.1974 34.6193L77.2564 34.9494C77.2745 35.0507 77.3142 35.1212 77.3753 35.1607C77.44 35.1996 77.5387 35.2072 77.6714 35.1835L77.9911 35.1263C78.1588 35.0963 78.2688 35.046 78.3211 34.9754C78.3775 34.9076 78.3938 34.8073 78.3701 34.6746ZM79.8674 34.4284L79.8178 34.1507L78.8482 34.324L78.8885 34.5494C78.9091 34.6647 78.9541 34.745 79.0235 34.7903C79.0936 34.839 79.1984 34.8509 79.3382 34.8259L79.5426 34.7894C79.7941 34.7444 79.9024 34.6241 79.8674 34.4284Z" fill="#B4B0AA"/>
<path opacity="0.3" d="M79.8835 36.6646L77.8836 36.8888C77.6402 36.9161 77.5298 37.0302 77.5523 37.2313C77.5748 37.4323 77.7078 37.5192 77.9512 37.4919L79.9511 37.2678C80.1945 37.2405 80.3049 37.1263 80.2824 36.9253C80.2598 36.7242 80.1269 36.6373 79.8835 36.6646ZM77.8554 36.3026L79.7812 36.0868C80.0775 36.0536 80.3153 36.1037 80.4945 36.2372C80.6738 36.3707 80.7794 36.5803 80.8114 36.866C80.8435 37.1517 80.7868 37.3795 80.6416 37.5493C80.4963 37.7192 80.2756 37.8207 79.9793 37.8539L78.0534 38.0698C77.7571 38.103 77.5194 38.0528 77.3401 37.9194C77.1609 37.7859 77.0552 37.5763 77.0232 37.2906C76.9912 37.0049 77.0478 36.7771 77.1931 36.6072C77.3383 36.4374 77.5591 36.3358 77.8554 36.3026Z" fill="#B4B0AA"/>
<path opacity="0.3" d="M78.6526 39.6704L78.6805 40.2233L78.186 40.2483C77.8847 40.2635 77.6487 40.2008 77.4781 40.0601C77.3111 39.9193 77.2204 39.7071 77.2061 39.4235C77.1918 39.1399 77.2607 38.9197 77.4127 38.7627C77.5682 38.6056 77.7967 38.5195 78.098 38.5043L80.0334 38.4066C80.3347 38.3914 80.5689 38.4542 80.7359 38.595C80.9065 38.7357 80.9989 38.9478 81.0132 39.2314C81.0275 39.515 80.9569 39.7353 80.8014 39.8924C80.6494 40.0494 80.4227 40.1354 80.1214 40.1506L79.7598 40.1689L79.7319 39.6159L80.1307 39.5958C80.3753 39.5834 80.4925 39.4762 80.4823 39.2742C80.4721 39.0721 80.3447 38.9773 80.1001 38.9896L78.0903 39.091C77.8492 39.1032 77.7338 39.2103 77.744 39.4123C77.7542 39.6144 77.8798 39.7093 78.1208 39.6972L78.6526 39.6704Z" fill="#B4B0AA"/>
<path opacity="0.3" d="M80.5082 40.7678L81.0405 40.7754L81.0148 42.5853L80.4825 42.5778L80.4912 41.9656L77.2971 41.9202L77.3054 41.3346L80.4995 41.38L80.5082 40.7678Z" fill="#B4B0AA"/>
<path opacity="0.3" d="M80.9203 44.3208C80.8747 44.9011 80.5458 45.1672 79.9337 45.1191L79.4507 45.0812C78.8385 45.0331 78.5553 44.7189 78.6008 44.1386L78.6225 43.8626L77.2266 43.753L77.2725 43.1691L80.9878 43.4609L80.9203 44.3208ZM80.3895 44.2791L80.4112 44.0031L79.1533 43.9043L79.1316 44.1803C79.1241 44.2758 79.1451 44.3487 79.1945 44.3988C79.2437 44.4525 79.332 44.4844 79.4594 44.4944L80.0167 44.5382C80.1441 44.5482 80.2362 44.5305 80.2932 44.4851C80.3499 44.4433 80.382 44.3746 80.3895 44.2791Z" fill="#B4B0AA"/>
<path opacity="0.3" d="M79.8501 46.3547L77.858 46.0697C77.6155 46.035 77.48 46.1178 77.4513 46.3181C77.4227 46.5184 77.5296 46.6358 77.772 46.6705L79.7642 46.9555C80.0066 46.9902 80.1422 46.9074 80.1708 46.7071C80.1995 46.5068 80.0926 46.3893 79.8501 46.3547ZM77.9778 45.4952L79.8962 45.7697C80.1913 45.8119 80.4089 45.9201 80.5489 46.0943C80.6889 46.2685 80.7385 46.4979 80.6978 46.7825C80.6571 47.0671 80.5452 47.2734 80.3619 47.4013C80.1787 47.5293 79.9395 47.5722 79.6444 47.5299L77.726 47.2555C77.4308 47.2133 77.2133 47.1051 77.0733 46.9309C76.9332 46.7567 76.8836 46.5273 76.9243 46.2427C76.965 45.9581 77.077 45.7518 77.2602 45.6239C77.4434 45.4959 77.6826 45.453 77.9778 45.4952Z" fill="#B4B0AA"/>
<path opacity="0.3" d="M76.6516 48.1787L78.2186 49.0182L79.0631 49.4457L76.4976 48.8916L76.3863 49.4068L80.0291 50.1936L80.1651 49.5639L78.7623 48.7707L78.0058 48.3895L80.3112 48.8874L80.4213 48.3774L76.7786 47.5906L76.6516 48.1787ZM80.9791 49.7288L80.9038 50.0775C80.7234 50.0385 80.5924 49.9558 80.5108 49.8292C80.4327 49.7034 80.415 49.5416 80.4577 49.3439C80.4997 49.1496 80.5818 49.013 80.7041 48.9341C80.8257 48.8587 80.9792 48.8374 81.1646 48.8702L81.0882 49.224C80.993 49.2108 80.9239 49.2194 80.881 49.2501C80.8415 49.2815 80.8132 49.3371 80.796 49.4169C80.778 49.5002 80.7818 49.5664 80.8075 49.6155C80.8332 49.6646 80.8904 49.7024 80.9791 49.7288Z" fill="#B4B0AA"/>
<path opacity="0.3" d="M75.7501 51.7697L77.336 51.643L77.0603 51.3731L75.9623 51.0496L76.1278 50.4879L79.7026 51.541L79.5371 52.1028L77.9795 51.6439L79.3205 52.8382L79.155 53.3999L77.7918 52.1492L75.5801 52.3468L75.7501 51.7697Z" fill="#B4B0AA"/>
<path opacity="0.3" d="M76.7425 54.1827L75.3115 53.1278L75.5212 52.5639L79.0142 53.8633L78.8323 54.3523L76.6217 53.53L77.3159 54.0154L78.5909 55.001L78.3663 55.6047L74.8734 54.3054L75.0572 53.8114L77.5172 54.7265L76.7425 54.1827Z" fill="#B4B0AA"/>
<path opacity="0.3" d="M76.6836 59.3485C76.4167 59.8658 76.0104 59.9836 75.4647 59.7021L75.0342 59.4799C74.4885 59.1984 74.3492 58.7989 74.6161 58.2817L74.743 58.0356L73.4987 57.3936L73.7672 56.8731L77.0791 58.582L76.6836 59.3485ZM76.2105 59.1044L76.3374 58.8583L75.2161 58.2798L75.0892 58.5258C75.0452 58.6109 75.0364 58.6862 75.0625 58.7516C75.087 58.8202 75.1561 58.8838 75.2696 58.9424L75.7664 59.1987C75.88 59.2573 75.9718 59.2767 76.0419 59.257C76.1103 59.2404 76.1665 59.1895 76.2105 59.1044Z" fill="#B4B0AA"/>
<path opacity="0.3" d="M74.9492 60.7487L73.2212 59.7173C73.0109 59.5918 72.8539 59.6159 72.7502 59.7896C72.6465 59.9633 72.6998 60.1129 72.9101 60.2385L74.6382 61.2699C74.8485 61.3954 75.0054 61.3713 75.1091 61.1976C75.2128 61.0239 75.1595 60.8743 74.9492 60.7487ZM73.5534 59.2335L75.2174 60.2268C75.4734 60.3796 75.6324 60.5634 75.6944 60.7781C75.7563 60.9928 75.7136 61.2236 75.5663 61.4705C75.4189 61.7173 75.236 61.8644 75.0176 61.9118C74.7992 61.9592 74.562 61.9065 74.306 61.7537L72.642 60.7604C72.386 60.6076 72.227 60.4238 72.165 60.2091C72.103 59.9944 72.1457 59.7636 72.2931 59.5167C72.4404 59.2699 72.6233 59.1227 72.8417 59.0754C73.0601 59.028 73.2974 59.0807 73.5534 59.2335Z" fill="#B4B0AA"/>
<path opacity="0.3" d="M72.1398 62.42L71.8272 62.877L71.4185 62.5975C71.1695 62.4271 71.0197 62.2344 70.9691 62.0192C70.9215 61.8059 70.9778 61.5822 71.1381 61.3478C71.2984 61.1134 71.4866 60.9798 71.7026 60.947C71.9215 60.9161 72.1554 60.9858 72.4044 61.1562L74.004 62.2503C74.253 62.4206 74.4013 62.6124 74.449 62.8256C74.4996 63.0408 74.4447 63.2656 74.2844 63.5C74.1241 63.7343 73.9345 63.8669 73.7155 63.8978C73.4996 63.9307 73.2671 63.8619 73.018 63.6916L72.7192 63.4872L73.0318 63.0302L73.3614 63.2556C73.5635 63.3939 73.7217 63.3795 73.8359 63.2126C73.9502 63.0456 73.9062 62.893 73.7041 62.7547L72.043 61.6185C71.8438 61.4822 71.6871 61.4976 71.5729 61.6646C71.4587 61.8315 71.5012 61.9832 71.7004 62.1194L72.1398 62.42Z" fill="#B4B0AA"/>
<path opacity="0.3" d="M70.6466 64.4452L70.3047 64.8808L69.9152 64.575C69.6779 64.3888 69.5411 64.1866 69.5047 63.9685C69.4711 63.7526 69.5419 63.533 69.7173 63.3097C69.8926 63.0863 70.0891 62.9653 70.3068 62.9467C70.5272 62.9302 70.7561 63.0151 70.9934 63.2014L72.5178 64.398C72.7551 64.5843 72.8906 64.7854 72.9242 65.0012C72.9606 65.2193 72.8911 65.44 72.7158 65.6634C72.5404 65.8867 72.3425 66.0066 72.1221 66.0231C71.9044 66.0417 71.6769 65.9579 71.4396 65.7716L71.1548 65.5481L71.4967 65.1125L71.8108 65.3591C72.0034 65.5103 72.1622 65.5063 72.2871 65.3472C72.412 65.1881 72.3782 65.0329 72.1855 64.8817L70.6025 63.6391C70.4127 63.4901 70.2553 63.4951 70.1304 63.6543C70.0055 63.8134 70.0379 63.9675 70.2278 64.1165L70.6466 64.4452Z" fill="#B4B0AA"/>
<path opacity="0.3" d="M69.4788 66.3315L68.5395 64.8222L68.9429 64.3759L71.7075 66.875L71.3576 67.262L69.608 65.6805L70.0734 66.3882L70.8935 67.7755L70.4615 68.2534L67.6969 65.7543L68.0503 65.3633L69.9974 67.1233L69.4788 66.3315Z" fill="#B4B0AA"/>
<path opacity="0.3" d="M67.3347 68.5476L66.5206 66.9672L66.9588 66.555L69.5122 69.2695L69.1322 69.627L67.5162 67.9091L67.9229 68.6522L68.628 70.1012L68.1588 70.5426L65.6054 67.828L65.9893 67.4669L67.7876 69.3787L67.3347 68.5476Z" fill="#B4B0AA"/>
</svg>
