<svg width="325" height="181" viewBox="0 0 325 181" fill="none" xmlns="http://www.w3.org/2000/svg">
<g clip-path="url(#clip0_148_1585)">
<line x1="0.5" y1="-3.64262e-08" x2="0.500005" y2="180" stroke="#3A396F"/>
<line x1="12.5" y1="-3.64262e-08" x2="12.5" y2="180" stroke="#3A396F"/>
<line x1="24.5" y1="-3.64262e-08" x2="24.5" y2="180" stroke="#3A396F"/>
<line x1="36.5" y1="-3.64262e-08" x2="36.5" y2="180" stroke="#3A396F"/>
<line x1="48.5" y1="-3.64262e-08" x2="48.5" y2="180" stroke="#3A396F"/>
<line x1="60.5" y1="-3.64262e-08" x2="60.5" y2="180" stroke="#3A396F"/>
<line x1="72.5" y1="-3.64262e-08" x2="72.5" y2="180" stroke="#3A396F"/>
<line x1="84.5" y1="-3.64262e-08" x2="84.5" y2="180" stroke="#3A396F"/>
<line x1="96.5" y1="-3.64262e-08" x2="96.5" y2="180" stroke="#3A396F"/>
<line x1="108.5" y1="-3.64262e-08" x2="108.5" y2="180" stroke="#3A396F"/>
<line x1="120.5" y1="-3.64262e-08" x2="120.5" y2="180" stroke="#3A396F"/>
<line x1="132.5" y1="-3.64262e-08" x2="132.5" y2="180" stroke="#3A396F"/>
<line x1="144.5" y1="-3.64262e-08" x2="144.5" y2="180" stroke="#3A396F"/>
<line x1="156.5" y1="-3.64262e-08" x2="156.5" y2="180" stroke="#3A396F"/>
<line x1="168.5" y1="-3.64262e-08" x2="168.5" y2="180" stroke="#3A396F"/>
<line x1="180.5" y1="-3.64262e-08" x2="180.5" y2="180" stroke="#3A396F"/>
<line x1="192.5" y1="-3.64262e-08" x2="192.5" y2="180" stroke="#3A396F"/>
<line x1="204.5" y1="-3.64262e-08" x2="204.5" y2="180" stroke="#3A396F"/>
<line x1="216.5" y1="-3.64262e-08" x2="216.5" y2="180" stroke="#3A396F"/>
<line x1="228.5" y1="-3.64262e-08" x2="228.5" y2="180" stroke="#3A396F"/>
<line x1="240.5" y1="-3.64262e-08" x2="240.5" y2="180" stroke="#3A396F"/>
<line x1="252.5" y1="-3.64262e-08" x2="252.5" y2="180" stroke="#3A396F"/>
<line x1="264.5" y1="-3.64262e-08" x2="264.5" y2="180" stroke="#3A396F"/>
<line x1="276.5" y1="-3.64262e-08" x2="276.5" y2="180" stroke="#3A396F"/>
<line x1="288.5" y1="-3.64262e-08" x2="288.5" y2="180" stroke="#3A396F"/>
<line x1="300.5" y1="-3.64262e-08" x2="300.5" y2="180" stroke="#3A396F"/>
<line x1="312.5" y1="-3.64262e-08" x2="312.5" y2="180" stroke="#3A396F"/>
<line x1="324.5" y1="-3.64262e-08" x2="324.5" y2="180" stroke="#3A396F"/>
<line x1="324" y1="0.5" y2="0.5" stroke="#3A396F"/>
<line x1="324" y1="12.5" y2="12.5" stroke="#3A396F"/>
<line x1="324" y1="24.5" y2="24.5" stroke="#3A396F"/>
<line x1="324" y1="36.5" y2="36.5" stroke="#3A396F"/>
<line x1="324" y1="48.5" y2="48.5" stroke="#3A396F"/>
<line x1="324" y1="60.5" y2="60.5" stroke="#3A396F"/>
<line x1="324" y1="72.5" y2="72.5" stroke="#3A396F"/>
<line x1="324" y1="84.5" y2="84.5" stroke="#3A396F"/>
<line x1="324" y1="96.5" y2="96.5" stroke="#3A396F"/>
<line x1="324" y1="108.5" y2="108.5" stroke="#3A396F"/>
<line x1="324" y1="120.5" y2="120.5" stroke="#3A396F"/>
<line x1="324" y1="132.5" y2="132.5" stroke="#3A396F"/>
<line x1="324" y1="144.5" y2="144.5" stroke="#3A396F"/>
<line x1="324" y1="156.5" y2="156.5" stroke="#3A396F"/>
<line x1="324" y1="168.5" y2="168.5" stroke="#3A396F"/>
<line x1="324" y1="180.5" y2="180.5" stroke="#3A396F"/>
<circle cx="193" cy="90" r="66" stroke="#FAF8F5"/>
<circle cx="132" cy="90" r="66" stroke="#FAF8F5"/>
<path fill-rule="evenodd" clip-rule="evenodd" d="M162.5 148.343C183.388 137.262 197.615 115.293 197.615 90C197.615 64.7074 183.388 42.7378 162.5 31.6573C141.612 42.7378 127.385 64.7074 127.385 90C127.385 115.293 141.612 137.262 162.5 148.343Z" fill="#FAF8F5" fill-opacity="0.06"/>
<path d="M162.5 148.343L162.266 148.784L162.5 148.909L162.734 148.784L162.5 148.343ZM162.5 31.6573L162.734 31.2156L162.5 31.0913L162.266 31.2156L162.5 31.6573ZM197.115 90C197.115 115.1 182.997 136.904 162.266 147.901L162.734 148.784C183.779 137.621 198.115 115.485 198.115 90H197.115ZM162.266 32.099C182.997 43.0962 197.115 64.8997 197.115 90H198.115C198.115 64.5151 183.779 42.3793 162.734 31.2156L162.266 32.099ZM127.885 90C127.885 64.8997 142.003 43.0962 162.734 32.099L162.266 31.2156C141.221 42.3793 126.885 64.5151 126.885 90H127.885ZM162.734 147.901C142.003 136.904 127.885 115.1 127.885 90H126.885C126.885 115.485 141.221 137.621 162.266 148.784L162.734 147.901Z" fill="#FAF8F5"/>
</g>
<defs>
<clipPath id="clip0_148_1585">
<rect width="325" height="181" fill="white"/>
</clipPath>
</defs>
</svg>
