<svg id="Layer_1" data-name="Layer 1" xmlns="http://www.w3.org/2000/svg" viewBox="0 0 24 24"><path d="M18.77,6.06,15.94,3.23a2.49,2.49,0,0,0-1.77-.73H7A2.5,2.5,0,0,0,4.5,5V19A2.5,2.5,0,0,0,7,21.5H17A2.5,2.5,0,0,0,19.5,19V7.83A2.49,2.49,0,0,0,18.77,6.06Zm-.71.71a1.51,1.51,0,0,1,.4.73H15a.5.5,0,0,1-.5-.5V3.54a1.51,1.51,0,0,1,.73.4ZM17,20.5H7A1.5,1.5,0,0,1,5.5,19V5A1.5,1.5,0,0,1,7,3.5h6.5V7A1.5,1.5,0,0,0,15,8.5h3.5V19A1.5,1.5,0,0,1,17,20.5Z"/><path d="M12.65,14.74l-1.06,1V11a.5.5,0,0,0-1,0v4.79L9.41,14.62a.49.49,0,1,0-.7.7l2,2a.36.36,0,0,0,.16.11.43.43,0,0,0,.19,0,.41.41,0,0,0,.19,0,.36.36,0,0,0,.16-.11l1.91-1.91a.49.49,0,0,0-.7-.7Z"/></svg>